<?xml version="1.0" encoding="UTF-8"?>
<svg width="16px" height="16px" viewBox="0 0 16 16" version="1.1" xmlns="http://www.w3.org/2000/svg" xmlns:xlink="http://www.w3.org/1999/xlink">
    <!-- Generator: Sketch 48.2 (47327) - http://www.bohemiancoding.com/sketch -->
    <title>icon-instagram</title>
    <desc>Created with Sketch.</desc>
    <defs></defs>
    <g id="TLC_ProductDetail_Wedges_OriginalSwiss_Desktop-1.1" stroke="none" stroke-width="1" fill="none" fill-rule="evenodd" transform="translate(-1319.000000, -1065.000000)">
        <g id="Social" transform="translate(1232.000000, 1046.000000)" fill="#FFFFFF">
            <path d="M101.098137,19 L88.9018629,19 C87.8514306,19 87,19.8492486 87,20.8974988 L87,33.1025012 C87,34.150315 87.8514306,35 88.9018629,35 L101.098137,35 C102.148569,35 103,34.150315 103,33.1025012 L103,20.8974988 C103,19.8492486 102.148569,19 101.098137,19 L101.098137,19 Z M98.5002046,21.4997409 C98.5002046,21.2239315 98.7240815,21.0000546 98.9998909,21.0000546 L100.499823,21.0000546 C100.776069,21.0000546 100.999945,21.2239315 100.999945,21.4997409 L100.999945,23.0001091 C100.999945,23.2759185 100.776069,23.4997954 100.499823,23.4997954 L98.9998909,23.4997954 C98.7240815,23.4997954 98.5002046,23.2759185 98.5002046,23.0001091 L98.5002046,21.4997409 L98.5002046,21.4997409 Z M95.0185473,23.9488585 C96.7179172,23.9488585 98.095655,25.3235414 98.095655,27.0185473 C98.095655,28.7139896 96.7179172,30.0882361 95.0185473,30.0882361 C93.3196138,30.0882361 91.941876,28.7139896 91.941876,27.0185473 C91.941876,25.3235414 93.3196138,23.9488585 95.0185473,23.9488585 L95.0185473,23.9488585 Z M101.500068,32.9999454 C101.500068,33.2757548 101.276191,33.5000682 100.999945,33.5000682 L89.0000546,33.5000682 C88.7238087,33.5000682 88.4999318,33.2757548 88.4999318,32.9999454 L88.4999318,25.49985 L90.4999864,25.49985 C90.2394512,25.8747238 90.1512969,26.5742847 90.1512969,27.0185473 C90.1512969,29.695906 92.335079,31.8744511 95.0185473,31.8744511 C97.7024521,31.8744511 99.8862341,29.695906 99.8862341,27.0185473 C99.8862341,26.5742847 99.822955,25.885634 99.5000136,25.49985 L101.500068,25.49985 L101.500068,32.9999454 L101.500068,32.9999454 Z" id="icon-instagram"></path>
        </g>
    </g>
</svg>