<?xml version="1.0" encoding="UTF-8"?>
<svg width="16px" height="13px" viewBox="0 0 16 13" version="1.1" xmlns="http://www.w3.org/2000/svg" xmlns:xlink="http://www.w3.org/1999/xlink">
    <!-- Generator: Sketch 48.2 (47327) - http://www.bohemiancoding.com/sketch -->
    <title>icon-twitter</title>
    <desc>Created with Sketch.</desc>
    <defs></defs>
    <g id="TLC_ProductDetail_Wedges_OriginalSwiss_Desktop-1.1" stroke="none" stroke-width="1" fill="none" fill-rule="evenodd" transform="translate(-1352.000000, -1067.000000)">
        <g id="Social" transform="translate(1232.000000, 1046.000000)" fill="#FFFFFF">
            <path d="M135.5587,21.2403319 C134.923878,21.6160328 134.222412,21.8892698 133.472672,22.0354683 C132.875444,21.3981929 132.021894,21 131.076923,21 C129.265586,21 127.795584,22.4694819 127.795584,24.2817596 C127.795584,24.5391689 127.823779,24.7886643 127.88017,25.0289962 C125.152057,24.8919612 122.733666,23.5870046 121.113716,21.5989555 C120.830908,22.0854506 120.669426,22.649835 120.669426,23.2508731 C120.669426,24.3888052 121.248712,25.393451 122.13003,25.9819935 C121.592609,25.9661658 121.085521,25.8170517 120.642085,25.5729711 L120.642085,25.612957 C120.642085,27.2036462 121.773743,28.5306783 123.27664,28.8309891 C123.001522,28.9080452 122.711024,28.9467816 122.411556,28.9467816 C122.200091,28.9467816 121.993752,28.9267886 121.793822,28.8884688 C122.211625,30.1917593 123.42317,31.141008 124.859851,31.1664157 C123.736737,32.0469386 122.320562,32.5717535 120.783061,32.5717535 C120.518196,32.5717535 120.256321,32.5567588 120,32.5267694 C121.452487,33.4564416 123.178811,34 125.032013,34 C131.070515,34 134.371506,29.0000961 134.371506,24.6628753 C134.371506,24.520009 134.368942,24.3775592 134.363389,24.2376085 C135.004619,23.774855 135.561691,23.197142 136,22.5390407 C135.41217,22.7997821 134.779056,22.9763865 134.115184,23.0555253 C134.793154,22.649835 135.313486,22.0067284 135.5587,21.2403319" id="icon-twitter"></path>
        </g>
    </g>
</svg>