<?xml version="1.0" encoding="UTF-8"?>
<svg width="16px" height="16px" viewBox="0 0 16 16" version="1.1" xmlns="http://www.w3.org/2000/svg" xmlns:xlink="http://www.w3.org/1999/xlink">
    <!-- Generator: Sketch 48.2 (47327) - http://www.bohemiancoding.com/sketch -->
    <title>icon-facebook</title>
    <desc>Created with Sketch.</desc>
    <defs></defs>
    <g id="TLC_ProductDetail_Wedges_OriginalSwiss_Desktop-1.1" stroke="none" stroke-width="1" fill="none" fill-rule="evenodd" transform="translate(-1252.000000, -1065.000000)">
        <g id="Social" transform="translate(1232.000000, 1046.000000)" fill="#FFFFFF">
            <path d="M36,34.1165831 C36,34.6042711 35.6046961,35 35.1169949,35 L31.0397429,35 L31.0397429,28.8038788 L33.1195554,28.8038788 L33.4311787,26.3894095 L31.0397429,26.3894095 L31.0397429,24.8474613 C31.0397429,24.1483983 31.234126,23.6720418 32.2365504,23.6720418 L33.5152951,23.671606 L33.5152951,21.5116583 C33.2938901,21.4824581 32.5350985,21.4166485 31.6520934,21.4166485 C29.8085043,21.4166485 28.5463213,22.5419481 28.5463213,24.6086293 L28.5463213,26.3894095 L26.4612786,26.3894095 L26.4612786,28.8038788 L28.5463213,28.8038788 L28.5463213,35 L20.8830051,35 C20.3953039,35 20,34.6042711 20,34.1165831 L20,19.8834169 C20,19.3952931 20.3953039,19 20.8830051,19 L35.1169949,19 C35.6046961,19 36,19.3952931 36,19.8834169 L36,34.1165831" id="icon-facebook"></path>
        </g>
    </g>
</svg>