<?xml version="1.0" encoding="utf-8"?>
<!-- Generator: Adobe Illustrator 19.2.1, SVG Export Plug-In . SVG Version: 6.00 Build 0)  -->
<svg version="1.1" id="Layer_1" xmlns="http://www.w3.org/2000/svg" xmlns:xlink="http://www.w3.org/1999/xlink" x="0px" y="0px"
	 viewBox="0 0 309.6 302" style="enable-background:new 0 0 309.6 302;" xml:space="preserve">
<style type="text/css">
	.st0{fill:#FFFFFF;}
	.st1{fill:#F15A22;}
</style>
<g id="Vertical_1_">
	<g>
		<g>
			<path class="st0" d="M204.7,185.3C204.6,185.3,204.6,185.3,204.7,185.3L99.4,147c0,0-0.1,0-0.1,0l4.9-13.6c0,0,0.1,0,0.1,0
				l105.2,38.3c0,0,0,0,0.1,0L204.7,185.3z"/>
		</g>
		<g>
			<path class="st0" d="M183,156.7l26.5-9.6c0,0,0,0,0.1,0l-5-13.6c0,0-0.1,0-0.1,0L161.9,149L183,156.7z"/>
		</g>
		<path class="st1" d="M138.5,104.6c-0.3,0.6-0.3,1.6,0,2.2l15.4,26.7c0.3,0.6,0.9,0.6,1.3,0l15.4-26.7c0.3-0.6,0.3-1.6,0-2.2
			l-15.4-26.7c-0.3-0.6-0.9-0.6-1.3,0L138.5,104.6z"/>
		<path class="st0" d="M107,77.8c0.3-0.6,0.3-1.6,0-2.2l-6-10.5c-0.3-0.6-0.9-0.6-1.2,0l-6,10.5c-0.3,0.6-0.3,1.6,0,2.2l6,10.5
			c0.3,0.6,0.9,0.6,1.2,0L107,77.8z"/>
		<path class="st0" d="M189.4,16.4c0.3-0.6,0.3-1.6,0-2.2l-7.1-12.3c-0.3-0.6-0.9-0.6-1.2,0l-7.1,12.3c-0.3,0.6-0.3,1.6,0,2.2
			l7.1,12.3c0.3,0.6,0.9,0.6,1.2,0L189.4,16.4z"/>
		<path class="st0" d="M114.8,130.8c0.3,0.6,1.2,1.3,1.8,1.5l21.4,7.8c0.6,0.2,0.9-0.1,0.6-0.7l-18.9-32.7c-0.3-0.6-0.3-1.6,0-2.2
			l34.2-59.3c0.3-0.6,0.9-0.6,1.3,0l16.4,28.5c0.3,0.6,0.6,1.1,0.6,1.1s0.3,0.5,0.6,1.1l16.5,28.6c0.3,0.6,0.6,1.1,0.6,1.1v0
			c0,0-0.3,0.5-0.6,1.1l-18.9,32.7c-0.3,0.6-0.1,0.9,0.6,0.7l21.4-7.8c0.6-0.2,1.5-0.9,1.8-1.5l13.9-24.1c0.3-0.6,0.3-1.6,0-2.2
			L200,90.4c-0.3-0.6-0.3-1.6,0-2.2l7.1-12.3c0.3-0.6,0.3-1.6,0-2.2l-16.5-28.6c-0.3-0.6-0.9-0.6-1.2,0l-7.1,12.3
			c-0.3,0.6-0.9,0.6-1.2,0l-25.8-44.8c-0.3-0.6-0.9-0.6-1.3,0L130.1,54c-0.3,0.6-0.9,0.6-1.3,0l-11.2-19.5c-0.3-0.6-0.9-0.6-1.2,0
			L105.1,54c-0.3,0.6-0.3,1.6,0,2.2l11.2,19.5c0.3,0.6,0.3,1.6,0,2.2L101,104.6c-0.3,0.6-0.3,1.6,0,2.2L114.8,130.8z"/>
		<g>
			<path class="st0" d="M125.9,162.1l-26.5,9.6c0,0-0.1,0-0.1,0l4.9,13.6c0,0,0.1,0,0.1,0l42.7-15.5L125.9,162.1z"/>
		</g>
	</g>
	<g>
		<path class="st0" d="M1,264.3l14.2-12.6c2.3-2.1,5.2-4.6,8.3-4.1c2.1,0.3,3.7,2,5.5,4c3.8,4.3,5.1,6.8,1.9,10.9
			c4.9-2.4,6.9-1.1,9.9,2.3c3.6,4,4.9,6,4.9,8.2c0,2.8-2.4,4.9-4.9,7.1l-14.2,12.7l-5.3-5.9l1.9-1.7L8.2,268.5l-1.9,1.7L1,264.3z
			 M15.9,261.7l4.8,5.4l4.5-4l-4.8-5.4L15.9,261.7z M25.4,272.3l5.4,6l4.5-4l-5.4-6L25.4,272.3z"/>
		<path class="st0" d="M56.4,223.8c3.2-1.7,6.3-3.2,9.3-1.3c1.9,1.2,3.2,3.5,4.6,6.2l7.5,13.9c1,1.9,2.1,4,2.6,5.8
			c1.2,5.1-2.7,7.2-5.6,8.8l-6.1,3.3c-2.1,1.1-4.9,2.6-7.6,2c-3-0.6-4.4-3.2-5.6-5.4l-8.9-16.5c-1.1-2-2.1-3.9-2.3-6
			c-0.5-4.3,2.9-6.1,5.4-7.5L56.4,223.8z M59.8,231.1l-5,2.7l10.6,19.6l5-2.7L59.8,231.1z"/>
		<path class="st0" d="M123.3,201.6l1.8,7.8l-2.4,0.6l5,21.7l2.4-0.6l1.8,7.8l-11.9,2.7l-11-12.8c-2.9-3.5-3.3-4.1-4.7-6.4
			c0.5,1.4,0.6,2,1,3.4l4.4,18.1l-11.6,2.7l-1.8-7.8l2.4-0.6l-5-21.7l-2.4,0.6l-1.8-7.8l11.9-2.8l12.1,14.4c1.9,2.2,2.3,2.8,3.5,4.9
			c-1-3.1-1.2-3.9-1.9-6.8l-3.4-14.9L123.3,201.6z"/>
		<path class="st0" d="M149.4,199.6l27.8,1.1l-0.5,12.1l-9.1-0.4l0.2-4.2l-5.7-0.2l-0.3,7.2l7.9,0.3l-0.3,6.9l-7.8-0.3l-0.3,8.2
			l2.4,0.1l-0.3,8l-15.5-0.6l0.3-8l2.5,0.1l0.9-22.3l-2.5-0.1L149.4,199.6z"/>
		<path class="st0" d="M200.4,204.7l15,3.8l-2,7.7l-2.5-0.6l-5.5,21.6l2.5,0.6l-2,7.7l-15-3.8l2-7.7l2.4,0.6l5.5-21.6l-2.4-0.6
			L200.4,204.7z"/>
		<path class="st0" d="M239.2,216.7l17.7,9.2c2,1.1,4.5,2.4,5.5,5c1,2.6-0.2,4.8-1.3,7.1c-2.3,4.5-3.9,7.4-9.5,6.5
			c1.1,0.9,2.1,1.8,2.5,3.5c0.4,2-0.3,3.7-1.1,5.2l-1.9,3.7l2.3,1.2l-3.7,7.1l-6.4-3.3c-3.5-1.9-4.7-2.8-3.1-6l5.3-10.3l-5.2-2.7
			l-7.1,13.8l-11.5-5.9l3.7-7.1l2.2,1.1l10.3-19.8l-2.2-1.1L239.2,216.7z M247,229.7l-3.5,6.7l5.2,2.7l3.5-6.7L247,229.7z"/>
		<path class="st0" d="M288.1,245.9l20,18.1l-8.4,9.3l-6.5-5.9l3.1-3.4l-4.1-3.7l-4.9,5.4l5.8,5.2l-4.7,5.2l-5.8-5.2l-5.4,5.9
			l4.1,3.7l3.3-3.7l6.9,6.2l-8.6,9.6l-20.5-18.5l5.3-5.9l1.9,1.7l15-16.6l-1.9-1.7L288.1,245.9z"/>
	</g>
	<g>
		<path class="st1" d="M101.5,272.3h8.2c0.2,0,0.3,0,0.5,0c4,0,7,0,9.5,1.9c2.1,1.6,3.2,4,3.2,7c0,4.4-2.2,7.3-6.4,8.2l7.8,11.6
			h-8.8l-6.6-11.2l0,11.2h-7.3L101.5,272.3z M110.3,285.8c3.3,0,4.9-1,4.9-3.6c0-3-1.5-4-4.7-4h-1.6v7.5H110.3z"/>
		<path class="st1" d="M144.2,272.3h17.6v6.3h-9.9v5h9.4v6.1h-9.4v4.9h9.9v6.4h-17.6V272.3z"/>
		<path class="st1" d="M181.8,272.3h6c0.3,0,0.6,0,0.9,0c5.3,0,9.6,0.1,13.4,2.7c3.6,2.5,5.5,6.5,5.5,11.6c0,5.1-1.9,9.1-5.5,11.6
			c-3.6,2.5-7.5,2.7-12.3,2.7c-0.6,0-1.3,0-2,0h-6V272.3z M190.8,294.5c6,0,8.8-2.3,8.8-7.9c0-5.7-2.9-7.9-8.8-7.9h-1.3l0,15.8
			H190.8z"/>
	</g>
</g>
</svg>
