<?xml version="1.0" standalone="no"?>
<!DOCTYPE svg PUBLIC "-//W3C//DTD SVG 1.1//EN" "http://www.w3.org/Graphics/SVG/1.1/DTD/svg11.dtd" >
<svg>
<metadata>
Created by FontForge 20090622 at Thu May 19 15:30:28 2016
 By deploy user
(C)1992 The Font Company Inc., ALL Rights Reserved
</metadata>
<defs>
<font id="AlternateGothic-No3" horiz-adv-x="364" >
  <font-face 
    font-family="AlternateGothic No 2"
    font-weight="400"
    font-stretch="normal"
    units-per-em="1000"
    panose-1="0 0 0 0 0 0 0 0 0 0"
    ascent="750"
    descent="-250"
    x-height="496"
    cap-height="666"
    bbox="-141 -250 846 873"
    underline-thickness="20"
    underline-position="-100"
    unicode-range="U+000D-U+FB02"
  />
<missing-glyph horiz-adv-x="0" 
 />
    <glyph glyph-name=".notdef" horiz-adv-x="0" 
 />
    <glyph glyph-name=".null" horiz-adv-x="0" 
 />
    <glyph glyph-name=".null" horiz-adv-x="0" 
 />
    <glyph glyph-name="nonmarkingreturn" unicode="&#xd;" horiz-adv-x="250" 
 />
    <glyph glyph-name="space" unicode=" " horiz-adv-x="160" 
 />
    <glyph glyph-name="exclam" unicode="!" horiz-adv-x="170" 
d="M133 0h-96v106h96v-106zM54 201l-24 465h110l-24 -465h-62z" />
    <glyph glyph-name="quotedbl" unicode="&#x22;" horiz-adv-x="441" 
d="M266 388l-25 278h121l-26 -278h-70zM104 388l-26 278h121l-25 -278h-70z" />
    <glyph glyph-name="numbersign" unicode="#" horiz-adv-x="552" 
d="M245 384l-14 -89h90l14 89h-90zM496 212h-102l-34 -212h-85l33 212h-89l-34 -212h-83l32 212h-100v83h114l14 89h-99l-1 84h113l31 198h84l-31 -198h89l32 198h85l-31 -198h87v-84h-100l-14 -89h89v-83z" />
    <glyph glyph-name="dollar" unicode="$" horiz-adv-x="410" 
d="M233 736v-61q43 -7 72.5 -23t61.5 -51l-68 -68q-39 52 -91 52q-34 0 -53.5 -20.5t-19.5 -55.5q0 -18 3.5 -31.5t14.5 -27t32 -30t55 -40.5q42 -29 65.5 -49.5t39.5 -42.5q36 -52 36 -122q0 -75 -38.5 -120.5t-109.5 -53.5v-76h-53v76q-46 6 -80.5 27.5t-70.5 66.5l69 65
q32 -40 56.5 -55t55.5 -15q32 0 51.5 21.5t19.5 58.5q0 20 -4 35t-16 30t-34.5 33t-59.5 44q-37 27 -57.5 45t-34.5 37q-37 52 -37 116q0 70 38.5 117t102.5 56v62h54z" />
    <glyph glyph-name="percent" unicode="%" horiz-adv-x="543" 
d="M385 100q0 -31 7 -42.5t26 -11.5q18 0 25 11.5t7 41.5v145q0 29 -7 40.5t-25 11.5q-19 0 -26 -11.5t-7 -40.5v-144zM93 423q0 -30 7 -42t25 -12t25 11.5t7 41.5v145q0 30 -6.5 41t-25.5 11q-18 0 -25 -11.5t-7 -40.5v-144zM510 110q0 -116 -92 -116t-92 115v124
q0 117 92 117t92 -117v-123zM437 666l-276 -666h-55l276 666h55zM217 433q0 -117 -92 -117t-92 117v123q0 117 92 117t92 -117v-123z" />
    <glyph glyph-name="ampersand" unicode="&#x26;" horiz-adv-x="475" 
d="M167 258q-17 -26 -25 -46t-8 -42q0 -32 18 -55.5t42 -23.5q31 0 63 33q-29 31 -49.5 62t-40.5 72zM191 423q57 66 57 129q0 27 -10.5 42.5t-28.5 15.5q-20 0 -32 -19.5t-12 -53.5q0 -55 26 -114zM427 297q-5 -50 -17 -88t-36 -77q11 -16 27 -25.5t41 -16.5v-100
q-35 3 -65 18.5t-61 47.5q-35 -35 -64.5 -48.5t-66.5 -13.5q-32 0 -59.5 12.5t-48 34.5t-32.5 51.5t-12 63.5q0 28 9.5 59.5t26.5 61.5q11 17 21 30.5t32 39.5q-24 51 -34 87t-10 74q0 36 10 66.5t28.5 52.5t44 34t56.5 12q54 0 89 -38.5t35 -98.5q0 -20 -3.5 -38t-13 -37.5
t-25.5 -42t-41 -52.5l-24 -31q15 -35 35 -69t41 -61q13 26 18.5 46.5t8.5 56.5z" />
    <glyph glyph-name="quotesingle" unicode="'" horiz-adv-x="222" 
d="M75 388l-25 278h121l-26 -278h-70z" />
    <glyph glyph-name="parenleft" unicode="(" horiz-adv-x="269" 
d="M235 667q-53 -84 -81 -178.5t-28 -190.5q0 -97 28 -191.5t81 -177.5l-58 -41q-69 93 -106.5 199t-37.5 211q0 104 37.5 210t106.5 200z" />
    <glyph glyph-name="parenright" unicode=")" horiz-adv-x="269" 
d="M33 -71q54 83 81.5 177.5t27.5 191.5q0 96 -27.5 190.5t-81.5 178.5l58 41q69 -94 106.5 -200t37.5 -211q0 -104 -37 -210t-107 -199z" />
    <glyph glyph-name="asterisk" unicode="*" horiz-adv-x="299" 
d="M33 555l23 70l60 -24l-3 65h73l-4 -65l61 24l23 -70l-63 -17l41 -50l-59 -43l-36 54l-35 -54l-59 43l41 50z" />
    <glyph glyph-name="plus" unicode="+" horiz-adv-x="492" 
d="M198 387v185h95v-184h195v-95h-195v-185h-95v184h-195v95h195z" />
    <glyph glyph-name="comma" unicode="," horiz-adv-x="163" 
d="M130 0l-59 -137h-38l44 137h-44v106h97v-106z" />
    <glyph glyph-name="hyphen" unicode="-" horiz-adv-x="210" 
d="M176 212h-143v83h143v-83z" />
    <glyph glyph-name="period" unicode="." horiz-adv-x="163" 
d="M130 0h-96v106h96v-106z" />
    <glyph glyph-name="slash" unicode="/" horiz-adv-x="504" 
d="M471 700l-348 -733h-90l347 733h91z" />
    <glyph glyph-name="zero" unicode="0" horiz-adv-x="390" 
d="M122 191q0 -62 15.5 -86t54.5 -24q40 0 55.5 24t15.5 86v284q0 62 -15.5 86t-55.5 24q-39 0 -54.5 -24.5t-15.5 -85.5v-284zM360 212q0 -58 -8 -94.5t-27 -63.5q-43 -64 -133 -64q-44 1 -78 17t-54 47q-20 29 -27.5 65t-7.5 93v242q0 57 8 94t27 64q44 64 132 64
q45 0 79 -16.5t54 -47.5q20 -30 27.5 -65.5t7.5 -92.5v-242z" />
    <glyph glyph-name="one" unicode="1" horiz-adv-x="239" 
d="M206 0h-96v510h-97v61q87 38 136 95h57v-666z" />
    <glyph glyph-name="two" unicode="2" horiz-adv-x="402" 
d="M356 0h-324v90l38 51l98.5 133t61.5 93q20 34 29.5 66t9.5 67q0 85 -65 85q-33 0 -51.5 -24.5t-18.5 -68.5v-20h-96q-1 6 -1 11.5v10.5q0 88 44.5 135t125.5 47q76 0 119 -46.5t43 -130.5q0 -30 -6 -58.5t-19.5 -59.5t-35 -65.5t-53.5 -76.5l-78 -103l-34 -46h213v-90z
" />
    <glyph glyph-name="three" unicode="3" horiz-adv-x="404" 
d="M176 396q51 2 69.5 21.5t18.5 72.5q0 95 -62 95q-29 0 -46.5 -21.5t-17.5 -56.5q0 -7 1 -11h-96q-1 5 -1 12q0 76 45 122t118 46q75 0 115 -48t40 -136q0 -61 -17.5 -92t-62.5 -48q51 -15 71 -49.5t20 -107.5q0 -99 -44.5 -152t-126.5 -53q-78 1 -122.5 49t-44.5 133v17
h100v-13q0 -45 18 -70t50 -25q70 0 70 113q0 60 -20.5 83.5t-74.5 25.5v93z" />
    <glyph glyph-name="four" unicode="4" horiz-adv-x="417" 
d="M218 504l-116 -245h116v245zM13 169v104l197 393h105v-407h76v-90h-75v-169h-98v169h-205z" />
    <glyph glyph-name="five" unicode="5" horiz-adv-x="391" 
d="M330 576h-207l-3 -152q24 22 48 32t53 10q35 0 62 -14.5t42 -40.5q17 -29 23.5 -64.5t6.5 -99.5q0 -42 -1.5 -72t-5.5 -52t-10.5 -38.5t-17.5 -32.5q-41 -62 -132 -62q-78 0 -118.5 45t-40.5 133v19h97v-17q0 -89 61 -89q21 0 34 6.5t20.5 24t10.5 47t3 75.5
q0 43 -3.5 71.5t-11.5 46t-21 25t-32 7.5q-22 0 -36.5 -12t-30.5 -42h-88l6 336h292v-90z" />
    <glyph glyph-name="six" unicode="6" horiz-adv-x="393" 
d="M127 189q0 -108 68 -108q36 0 52 28t16 94q0 65 -15 92t-51 27q-21 0 -36.5 -9.5t-33.5 -32.5v-91zM258 493v16q0 76 -62 76q-20 0 -33.5 -6.5t-21.5 -23t-11 -43.5t-3 -69v-82q21 29 44 40.5t57 11.5q135 0 135 -199q0 -224 -167 -224q-85 0 -125.5 57t-40.5 177v237
q0 57 9 93.5t31 63.5q22 29 54.5 43.5t71.5 14.5q72 0 115 -45t43 -121v-17h-96z" />
    <glyph glyph-name="seven" unicode="7" horiz-adv-x="401" 
d="M360 595l-149 -595h-101l148 576h-217v90h319v-71z" />
    <glyph glyph-name="eight" unicode="8" horiz-adv-x="404" 
d="M271 191q0 110 -69 110t-69 -110t69 -110t69 110zM266 490q0 95 -64 95q-64 -1 -64 -95t64 -94t64 94zM290 351q44 -19 62.5 -55t18.5 -105q0 -54 -10.5 -89.5t-33.5 -61.5q-45 -50 -125 -50q-169 2 -169 197q0 72 17.5 108.5t62.5 55.5q-40 20 -56 52t-16 94
q0 88 41.5 133.5t119.5 45.5t119 -45.5t41 -133.5q0 -62 -15.5 -94t-56.5 -52z" />
    <glyph glyph-name="nine" unicode="9" horiz-adv-x="393" 
d="M266 477q0 108 -68 108q-37 0 -52.5 -28.5t-15.5 -94.5q0 -64 15 -91t51 -27q21 0 36.5 9.5t33.5 32.5v91zM135 173v-17q0 -75 61 -75q21 0 34.5 6.5t21.5 23t11 43.5t3 69v82q-21 -29 -44.5 -41t-56.5 -12q-135 0 -135 199q0 225 167 225q85 0 125.5 -57.5t40.5 -176.5
v-237q0 -57 -9.5 -93.5t-30.5 -64.5q-46 -57 -127 -57q-72 0 -115 45t-43 121q0 3 0.5 7.5t0.5 9.5h96z" />
    <glyph glyph-name="colon" unicode=":" horiz-adv-x="163" 
d="M130 390h-96v106h96v-106zM130 0h-96v106h96v-106z" />
    <glyph glyph-name="semicolon" unicode=";" horiz-adv-x="163" 
d="M130 0l-59 -137h-38l44 137h-44v106h97v-106zM130 390h-96v106h96v-106z" />
    <glyph glyph-name="less" unicode="&#x3c;" horiz-adv-x="499" 
d="M492 492l-362 -159l362 -139v-103l-485 188v106l485 210v-103z" />
    <glyph glyph-name="equal" unicode="=" horiz-adv-x="492" 
d="M489 308v-95h-486v95h486zM489 467v-95h-486v95h486z" />
    <glyph glyph-name="greater" unicode="&#x3e;" horiz-adv-x="499" 
d="M7 193l362 159l-362 139v104l485 -190v-105l-485 -210v103z" />
    <glyph glyph-name="question" unicode="?" horiz-adv-x="374" 
d="M237 0h-96v106h96v-106zM145 202l-1 20v8q0 37 2.5 65t10 54t21 54.5t34.5 66.5q17 29 22 44t5 30q0 20 -11.5 32t-31.5 12q-23 0 -39.5 -18.5t-30.5 -61.5l-93 27q22 72 61.5 105t105.5 33q63 0 102 -35.5t39 -94.5q0 -28 -10.5 -53.5t-39.5 -68.5q-20 -31 -32.5 -52.5
t-19 -42t-8.5 -43t-2 -55.5v-26h-84z" />
    <glyph glyph-name="at" unicode="@" horiz-adv-x="695" 
d="M341 226q40 0 66 30.5t26 77.5q0 38 -20 60t-53 22q-40 0 -67.5 -31.5t-27.5 -77.5q0 -36 21 -58.5t55 -22.5zM643 132l-28.5 -34.5t-23.5 -25t-21.5 -18.5t-24.5 -17q-74 -48 -187 -48q-78 0 -143 25.5t-112.5 70.5t-74 107.5t-26.5 137.5t27 139t75 110.5t113.5 72.5
t142.5 26q70 0 129 -21t102 -59t67 -90t24 -114q0 -87 -43.5 -150.5t-123.5 -95.5q-34 -14 -58 -14q-52 0 -54 48q-39 -44 -96 -44q-32 0 -58.5 12t-46 34t-30 51.5t-10.5 65.5q0 44 14.5 82.5t39.5 67t59 44.5t73 16q72 0 110 -60l9 48h83l-44 -257q-2 -8 -2.5 -13.5
t-1.5 -7.5v-5q0 -13 13 -13q15 0 36 16.5t38 41.5t26 54.5t9 61.5q0 52 -19 96t-53.5 75.5t-82 49.5t-103.5 18q-60 0 -111.5 -22t-89.5 -60t-59.5 -90.5t-21.5 -112.5t21.5 -111.5t59.5 -89t89.5 -59t112.5 -21.5q63 0 112 24q23 10 39 21.5t44 36.5h81z" />
    <glyph glyph-name="A" unicode="A" horiz-adv-x="417" 
d="M259 240l-55 298l-53 -298h108zM134 145l-27 -145h-101l128 666h142l134 -666h-105l-29 145h-142z" />
    <glyph glyph-name="B" unicode="B" horiz-adv-x="424" 
d="M188 95q50 0 76.5 24t26.5 69q0 51 -31.5 81.5t-85.5 30.5h-38v-205h52zM174 395q47 0 75 25.5t28 67.5q0 83 -101 83h-40v-176h38zM33 666h154q94 0 144.5 -43.5t50.5 -124.5q0 -60 -26.5 -96t-83.5 -53q32 -9 48 -16.5t31 -21.5q47 -44 47 -123q0 -89 -52 -138.5
t-146 -49.5h-167v666z" />
    <glyph glyph-name="C" unicode="C" horiz-adv-x="404" 
d="M278 449v14q0 117 -79 117q-42 0 -59 -29t-17 -101v-221q0 -80 17 -111.5t60 -31.5q81 0 81 131q0 3 -0.5 7t-0.5 10h104v-23q0 -109 -46 -165t-137 -56q-51 0 -90 19.5t-59 54.5q-10 17 -16 32.5t-9.5 35.5t-5 46.5t-1.5 64.5v186q0 41 1.5 69.5t6 49t11.5 36t19 30.5
q47 62 142 62q86 0 133.5 -54t47.5 -153v-20h-103z" />
    <glyph glyph-name="D" unicode="D" horiz-adv-x="409" 
d="M187 95q54 0 76 31.5t22 109.5v193q0 79 -22 110.5t-76 31.5h-51v-476h51zM33 666h163q99 0 146 -51t47 -157v-249q0 -108 -47 -158.5t-146 -50.5h-163v666z" />
    <glyph glyph-name="E" unicode="E" horiz-adv-x="349" 
d="M335 571h-199v-175h147v-95h-146v-206h199v-95h-302v666h301v-95z" />
    <glyph glyph-name="F" unicode="F" horiz-adv-x="345" 
d="M136 0h-103v666h305v-95h-201v-180h149v-95h-150v-296z" />
    <glyph glyph-name="G" unicode="G" horiz-adv-x="404" 
d="M384 331v-331h-53l-19 56q-26 -35 -55 -50.5t-70 -15.5q-47 0 -83 20.5t-55 57.5q-9 17 -14.5 33.5t-8.5 37t-4.5 46.5t-1.5 61v183q0 41 1.5 69.5t6 49t11.5 36t19 30.5q23 31 59.5 46.5t82.5 15.5q86 0 133.5 -54t47.5 -153v-20h-103v14q0 117 -79 117q-42 0 -59 -29.5
t-17 -101.5v-203q0 -89 18 -124.5t63 -35.5q41 0 58.5 31.5t17.5 101.5v27h-84v85h188z" />
    <glyph glyph-name="H" unicode="H" horiz-adv-x="419" 
d="M136 293v-293h-103v666h103v-277h146v277h104v-666h-104v293h-146z" />
    <glyph glyph-name="I" unicode="I" horiz-adv-x="170" 
d="M136 0h-103v666h103v-666z" />
    <glyph glyph-name="J" unicode="J" horiz-adv-x="235" 
d="M201 666v-503q0 -54 -6 -80.5t-23 -46.5t-41 -28t-63 -8h-61v96h23q38 0 53 16t15 58v496h103z" />
    <glyph glyph-name="K" unicode="K" horiz-adv-x="422" 
d="M136 390l149 276h111l-141 -242l161 -424h-112l-113 314l-55 -93v-221h-103v666h103v-276z" />
    <glyph glyph-name="L" unicode="L" horiz-adv-x="348" 
d="M136 95h205v-95h-308v666h103v-571z" />
    <glyph glyph-name="M" unicode="M" horiz-adv-x="552" 
d="M518 0h-98v483l-113 -483h-63l-113 483v-483h-98v666h151l92 -395l93 395h149v-666z" />
    <glyph glyph-name="N" unicode="N" horiz-adv-x="436" 
d="M403 0h-92l-180 437v-437h-98v666h104l167 -408v408h99v-666z" />
    <glyph glyph-name="O" unicode="O" horiz-adv-x="404" 
d="M123 213q0 -71 17 -99t62 -28q44 0 61 28t17 99v239q0 72 -17 100t-61 28q-44 -1 -61.5 -29t-17.5 -99v-239zM384 212q0 -57 -9 -94t-29 -64q-48 -64 -144 -64q-48 1 -85.5 17t-58.5 47q-21 29 -29.5 65t-8.5 93v242q0 57 9 94t29 64q47 64 144 64q48 0 85 -16.5
t59 -47.5q20 -29 29 -65t9 -93v-242z" />
    <glyph glyph-name="P" unicode="P" horiz-adv-x="410" 
d="M181 365q62 0 85.5 21.5t23.5 78.5q0 31 -5 51.5t-18 32.5t-33.5 17t-52.5 5h-45v-206h45zM136 0h-103v666h171q51 0 84 -10t56 -33q53 -52 53 -152q0 -106 -46 -153.5t-147 -47.5h-68v-270z" />
    <glyph glyph-name="Q" unicode="Q" horiz-adv-x="416" 
d="M123 213q0 -71 17 -99t62 -28q44 0 61 28t17 99v239q0 72 -17 100t-61 28q-44 -1 -61.5 -29t-17.5 -99v-239zM413 -49q-86 1 -125 55q-27 -10 -43.5 -13t-44.5 -3q-47 0 -84 16.5t-58 47.5q-21 29 -29.5 65t-8.5 93v242q0 57 9 94t29 64q47 64 144 64q48 0 85 -16.5
t59 -47.5q20 -29 29 -65t9 -93v-242q0 -48 -6 -80.5t-19 -56.5q9 -14 21 -20t33 -8v-96z" />
    <glyph glyph-name="R" unicode="R" horiz-adv-x="408" 
d="M174 368q59 0 82 22.5t23 79.5t-23 79t-82 22h-38v-203h38zM136 0h-103v666h162q94 0 142.5 -48t48.5 -142q0 -127 -90 -174l98 -302h-108l-88 273h-62v-273z" />
    <glyph glyph-name="S" unicode="S" horiz-adv-x="411" 
d="M295 480q-24 100 -89 100q-29 -1 -47.5 -20t-18.5 -48q0 -27 15.5 -51.5t53.5 -53.5l46 -36l37 -29.5l26.5 -22.5t20 -18.5t16.5 -18.5q20 -26 31.5 -57.5t11.5 -65.5q0 -38 -13.5 -69t-37.5 -53.5t-57.5 -34.5t-74.5 -12q-171 0 -202 187l99 29q20 -120 103 -120
q34 0 55 21t21 55q0 16 -4.5 29.5t-15.5 28.5t-30 32t-48 40l-42.5 34l-24.5 19q-32 26 -56 56q-37 49 -37 111q0 36 13 66.5t36 52t55 33.5t70 12q143 0 187 -166z" />
    <glyph glyph-name="T" unicode="T" horiz-adv-x="375" 
d="M239 0h-103v571h-129v95h361v-95h-129v-571z" />
    <glyph glyph-name="U" unicode="U" horiz-adv-x="419" 
d="M385 666v-451q0 -64 -8.5 -101t-29.5 -65q-47 -59 -138 -59q-45 1 -81 15.5t-57 43.5q-22 30 -30 66t-8 99v452h103v-468q0 -60 17 -86t56 -26t56 26t17 86v468h103z" />
    <glyph glyph-name="V" unicode="V" horiz-adv-x="412" 
d="M149 0l-143 666h107l100 -507l88 507h105l-129 -666h-128z" />
    <glyph glyph-name="W" unicode="W" horiz-adv-x="610" 
d="M395 0l-87 445l-80 -445h-96l-126 666h100l76 -430l80 430h90l87 -430l68 430h96l-112 -666h-96z" />
    <glyph glyph-name="X" unicode="X" horiz-adv-x="436" 
d="M274 347l155 -347h-114l-101 242l-95 -242h-112l148 347l-143 319h114l89 -214l83 214h112z" />
    <glyph glyph-name="Y" unicode="Y" horiz-adv-x="420" 
d="M259 0h-103v260l-150 406h114l89 -282l92 282h112l-154 -406v-260z" />
    <glyph glyph-name="Z" unicode="Z" horiz-adv-x="375" 
d="M362 0h-349v97l233 474h-211v95h324v-95l-232 -476h235v-95z" />
    <glyph glyph-name="bracketleft" unicode="[" horiz-adv-x="240" 
d="M206 580h-73v-588h73v-86h-173v760h173v-86z" />
    <glyph glyph-name="backslash" unicode="\" horiz-adv-x="504" 
d="M123 700l348 -733h-90l-348 733h90z" />
    <glyph glyph-name="bracketright" unicode="]" horiz-adv-x="240" 
d="M33 -8h73v588h-73v86h173v-760h-173v86z" />
    <glyph glyph-name="asciicircum" unicode="^" horiz-adv-x="500" 
d="M3 368l193 298h108l192 -298h-104l-142 212l-143 -212h-104z" />
    <glyph glyph-name="underscore" unicode="_" horiz-adv-x="500" 
d="M500 -180h-500v113h500v-113z" />
    <glyph glyph-name="grave" unicode="`" horiz-adv-x="262" 
d="M132 578l-72 88h96l46 -88h-70z" />
    <glyph glyph-name="a" unicode="a" 
d="M233 255q-62 -32 -88.5 -61t-26.5 -64q0 -24 13 -40t34 -16q39 0 68 45v136zM241 0q-5 13 -6.5 25.5t-1.5 32.5q-34 -37 -58.5 -50.5t-54.5 -13.5q-48 0 -74.5 34t-26.5 96q0 71 44 109q11 11 23 19.5t28 17.5t38 19l53 24l28 11v27q0 38 -11.5 54t-37.5 16t-39.5 -16.5
t-15.5 -53.5h-98q5 74 47.5 113t117.5 39q70 0 102 -38q9 -10 14.5 -19.5t8.5 -21.5t4 -28.5t1 -39.5v-221q0 -28 0.5 -48t1.5 -34.5t3.5 -26.5l5.5 -26h-96z" />
    <glyph glyph-name="b" unicode="b" horiz-adv-x="356" 
d="M126 99q37 -25 65 -25q31 0 41.5 22t10.5 86v131q0 64 -10.5 86t-41.5 22q-16 0 -31 -5.5t-34 -19.5v-297zM33 666h93v-219q31 29 57 42.5t53 13.5q57 0 80 -51q6 -13 10 -26.5t6 -30t3 -37.5t1 -50v-119q0 -58 -4.5 -89t-15.5 -56q-24 -50 -80 -50q-27 0 -53 12.5
t-57 42.5v-49h-93v666z" />
    <glyph glyph-name="c" unicode="c" horiz-adv-x="349" 
d="M236 324v14q0 83 -60 83q-36 0 -49.5 -24t-13.5 -89v-119q0 -66 13.5 -90.5t48.5 -24.5q32 0 46.5 21t14.5 67v5.5t-1 8.5h94v-19q0 -45 -8 -73t-27 -49q-40 -45 -118 -45q-88 0 -125 52q-18 24 -24.5 53t-6.5 81v144q0 52 7 81.5t24 52.5q39 52 124 52q80 0 119 -44
q20 -21 27.5 -48t7.5 -72v-18h-93z" />
    <glyph glyph-name="d" unicode="d" horiz-adv-x="356" 
d="M230 396q-19 14 -34.5 19.5t-30.5 5.5q-31 0 -41.5 -22t-10.5 -86v-130q0 -64 10.5 -86.5t41.5 -22.5q28 0 65 25v297zM230 0v49q-31 -30 -57 -42.5t-53 -12.5q-57 0 -80 50q-6 13 -10 26.5t-6 30t-3 37.5t-1 50v120q0 29 1 50.5t3 38t6 29.5t10 26q25 51 80 51
q27 0 53 -13.5t57 -42.5v219h93v-666h-93z" />
    <glyph glyph-name="e" unicode="e" horiz-adv-x="349" 
d="M234 341q0 45 -14 64.5t-46 19.5t-46.5 -19.5t-14.5 -64.5v-27h121v27zM114 233l-1 -45q0 -66 13.5 -90t49.5 -23q60 0 60 83v5t-1 8h94v-18q0 -45 -8 -72t-27 -47q-41 -44 -118 -44q-88 0 -125 52q-17 24 -24 53.5t-7 80.5v149q0 30 2 51.5t6.5 37.5t12 28.5t18.5 23.5
q41 40 114 40q77 0 117 -46q22 -25 30 -55.5t8 -89.5v-82h-214z" />
    <glyph glyph-name="f" unicode="f" horiz-adv-x="272" 
d="M251 413h-77v-413h-93v413h-67v83h67v48q-1 72 24.5 100.5t91.5 28.5q17 0 29.5 -1.5t31.5 -5.5v-86q-16 5 -23.5 6.5t-17.5 1.5q-25 0 -34 -14t-9 -51v-27h77v-83z" />
    <glyph glyph-name="g" unicode="g" horiz-adv-x="348" 
d="M114 -13q-25 -22 -25 -44t21 -31.5t71 -9.5q95 0 95 43q0 19 -17 26.5t-65 9.5l-31 2q-11 1 -20.5 1.5t-28.5 2.5zM103 285q0 -80 56 -80q57 0 57 80v55q0 81 -57 81q-56 0 -56 -81v-55zM369 403q-8 7 -14.5 9.5t-17.5 2.5q-12 0 -20 -4t-16 -15q5 -20 7.5 -38t2.5 -44
q0 -94 -38.5 -142.5t-111.5 -48.5q-10 0 -16.5 0.5t-19.5 2.5q-22 -11 -22 -28q0 -8 2.5 -13t12.5 -8t29 -4.5t53 -3.5q48 -2 72.5 -7.5t44.5 -19.5q47 -30 47 -94t-47.5 -94t-150.5 -30q-171 0 -171 90q0 29 18 48t59 33q-32 13 -45 27t-13 37q0 29 17 46.5t60 31.5
q-44 23 -63.5 64.5t-19.5 111.5q0 94 39 142t114 48q43 0 70.5 -14.5t50.5 -48.5q11 35 29 48.5t52 13.5h6v-99z" />
    <glyph glyph-name="h" unicode="h" 
d="M126 432q33 38 62 54.5t61 16.5q82 0 82 -115v-388h-93v363q0 33 -8 45.5t-28 12.5q-40 0 -76 -50v-371h-93v666h93v-234z" />
    <glyph glyph-name="i" unicode="i" horiz-adv-x="160" 
d="M126 570h-93v96h93v-96zM126 0h-93v496h93v-496z" />
    <glyph glyph-name="j" unicode="j" horiz-adv-x="156" 
d="M123 570h-93v96h93v-96zM123 496v-504q0 -50 -5.5 -73.5t-22.5 -42.5q-36 -42 -106 -42q-11 0 -18.5 1t-20.5 3v90q11 -2 16 -2.5t12 -0.5q29 0 40.5 20t11.5 68v483h93z" />
    <glyph glyph-name="k" unicode="k" horiz-adv-x="374" 
d="M126 298l112 198h107l-101 -162l110 -334h-104l-70 232l-54 -85v-147h-93v666h93v-368z" />
    <glyph glyph-name="l" unicode="l" horiz-adv-x="160" 
d="M126 0h-93v666h93v-666z" />
    <glyph glyph-name="m" unicode="m" horiz-adv-x="569" 
d="M126 432q33 38 62 54.5t61 16.5q65 0 79 -71q33 38 62.5 54.5t63.5 16.5q82 0 82 -115v-388h-93v363q-1 33 -8.5 45.5t-27.5 12.5q-40 0 -76 -50v-371h-93v363q0 33 -8 45.5t-28 12.5q-40 0 -76 -50v-371h-93v496h93v-64z" />
    <glyph glyph-name="n" unicode="n" 
d="M126 432q33 38 62 54.5t61 16.5q82 0 82 -115v-388h-93v363q0 33 -8 45.5t-28 12.5q-40 0 -76 -50v-371h-93v496h93v-64z" />
    <glyph glyph-name="o" unicode="o" horiz-adv-x="344" 
d="M113 166q0 -48 14 -70t45 -21q31 0 45 21t14 69v165q0 48 -14 69.5t-45 21.5t-45 -21.5t-14 -69.5v-164zM324 172q0 -60 -8 -90t-31 -52q-41 -40 -113 -40q-35 1 -64 10.5t-49 29.5q-12 12 -19.5 24.5t-12 28.5t-6 37.5t-1.5 50.5v154q0 59 8.5 89t30.5 52q41 40 113 40
q73 0 113 -40q12 -12 19.5 -24t12 -28.5t6 -37.5t1.5 -51v-153z" />
    <glyph glyph-name="p" unicode="p" horiz-adv-x="356" 
d="M126 100q36 -26 65 -26q31 0 41.5 22.5t10.5 86.5v130q0 64 -10.5 86t-41.5 22q-16 0 -31 -5.5t-34 -19.5v-296zM126 496v-49q31 29 57 42.5t53 13.5q57 0 80 -51q6 -13 10 -26.5t6 -30t3 -37.5t1 -50v-119q0 -58 -4.5 -89t-15.5 -56q-24 -50 -80 -50q-27 0 -53 13
t-57 42v-219h-93v666h93z" />
    <glyph glyph-name="q" unicode="q" horiz-adv-x="356" 
d="M230 396q-19 14 -34.5 19.5t-30.5 5.5t-25 -5t-16 -17t-8.5 -33t-2.5 -53v-130q0 -64 10.5 -86.5t41.5 -22.5q29 0 65 26v296zM323 -170h-93v219q-31 -29 -57 -42t-53 -13q-57 0 -80 50q-6 13 -10 26.5t-6 30t-3 37.5t-1 50v120q0 29 1 50.5t3 38t6 29.5t10 26
q25 51 80 51q27 0 53 -13.5t57 -42.5v49h93v-666z" />
    <glyph glyph-name="r" unicode="r" horiz-adv-x="247" 
d="M126 496v-85q22 52 47.5 71.5t71.5 20.5v-107q-14 5 -23.5 7t-21.5 2q-41 0 -57.5 -24t-16.5 -83v-298h-93v496h93z" />
    <glyph glyph-name="s" unicode="s" horiz-adv-x="349" 
d="M242 349q-15 39 -33 55.5t-44 16.5q-22 0 -35.5 -12t-13.5 -32q0 -10 3.5 -18t12.5 -17t25.5 -19l42.5 -25q43 -23 64.5 -37.5t36.5 -29.5q35 -37 35 -95q0 -66 -42 -106t-111 -40q-64 0 -105.5 33.5t-64.5 105.5l87 31q15 -46 34.5 -66t48.5 -20q23 0 38 14t15 36
q0 21 -14.5 37t-54.5 38l-44.5 25t-29.5 18t-20 15t-16 16q-36 39 -36 95q0 30 11 55.5t30 43.5t46 28.5t58 10.5q60 0 99 -29t62 -91z" />
    <glyph glyph-name="t" unicode="t" horiz-adv-x="285" 
d="M263 413h-85v-264q0 -38 13.5 -54.5t44.5 -16.5q10 0 16.5 1t19.5 5v-84q-21 -4 -33 -5t-29 -1q-75 0 -102 36q-7 9 -11.5 18t-7 21t-3.5 28.5t-1 40.5v275h-71v83h71v137h93v-137h85v-83z" />
    <glyph glyph-name="u" unicode="u" 
d="M331 0h-93v64q-33 -38 -62 -54t-62 -16q-42 0 -61.5 27.5t-19.5 86.5v388h93v-363q0 -33 8 -46t28 -13q19 0 39 13.5t37 36.5v372h93v-496z" />
    <glyph glyph-name="v" unicode="v" horiz-adv-x="344" 
d="M130 0l-124 496h100l70 -316l63 316h98l-110 -496h-97z" />
    <glyph glyph-name="w" unicode="w" horiz-adv-x="527" 
d="M327 0l-64 305l-62 -305h-88l-107 496h95l60 -310l61 310h85l64 -310l55 310h94l-105 -496h-88z" />
    <glyph glyph-name="x" unicode="x" horiz-adv-x="355" 
d="M231 259l117 -259h-101l-71 175l-70 -175h-99l114 259l-107 237h101l62 -153l58 153h99z" />
    <glyph glyph-name="y" unicode="y" horiz-adv-x="347" 
d="M340 496l-107 -475q-8 -33 -14.5 -56t-12.5 -39.5t-12.5 -28t-14.5 -21.5q-25 -30 -56 -40q-11 -4 -20 -6t-19.5 -3.5t-25 -2t-37.5 -0.5v95h16q38 0 61.5 22t23.5 59q0 13 -6 43l-110 453h98l73 -339l67 339h96z" />
    <glyph glyph-name="z" unicode="z" horiz-adv-x="321" 
d="M307 0h-294v93l187 313h-171v90h279v-93l-188 -313h187v-90z" />
    <glyph glyph-name="braceleft" unicode="{" horiz-adv-x="311" 
d="M136 248q35 -23 47.5 -49.5t12.5 -76.5v-127v-34q0 -18 3 -29.5t12 -18t24.5 -9t40.5 -2.5q4 0 7.5 0.5t11.5 0.5v-87l-16 -1q-12 0 -21 -0.5t-17 -0.5q-84 0 -118.5 33t-34.5 112v155q0 44 -12 63.5t-43 25.5v89q32 7 43.5 26t11.5 64v157q0 78 35 110.5t118 32.5h22
t32 -2v-86h-19q-25 0 -40.5 -2.5t-24.5 -9t-12 -18t-3 -29.5v-34v-128q0 -25 -2.5 -43.5t-9.5 -32.5t-18.5 -25.5t-29.5 -23.5z" />
    <glyph glyph-name="bar" unicode="|" horiz-adv-x="500" 
d="M295 666v-843h-92v843h92z" />
    <glyph glyph-name="braceright" unicode="}" horiz-adv-x="311" 
d="M174 248q-34 22 -47 48.5t-13 76.5v128v34q0 18 -3 29.5t-12 18t-24.5 9t-41.5 2.5h-18v86l16 1q12 1 21 1h17q84 0 118.5 -33t34.5 -111v-155q0 -45 12 -65t43 -26v-88q-32 -7 -43.5 -26t-11.5 -64v-157q0 -78 -34.5 -110.5t-118.5 -32.5q-13 0 -24 0.5t-30 1.5v86
q8 1 11.5 0.5t7.5 -0.5q25 0 40.5 2.5t24.5 9t12 18t3 29.5v34v128q0 25 2.5 43t9.5 32t18.5 26t29.5 24z" />
    <glyph glyph-name="asciitilde" unicode="~" horiz-adv-x="499" 
d="M497 612q-38 -64 -68.5 -89t-71.5 -25q-28 0 -66 16l-45 19l-44 18q-23 9 -33.5 12t-22.5 3q-26 0 -45.5 -17.5t-47.5 -67.5l-52 59q38 66 70 92.5t72 26.5q23 0 48.5 -7.5t74.5 -28.5l39 -17.5t24.5 -9.5t15.5 -4t12 -1q24 0 43.5 17t45.5 62z" />
    <glyph glyph-name="nonbreakingspace" unicode="&#xa0;" horiz-adv-x="160" 
 />
    <glyph glyph-name="exclamdown" unicode="&#xa1;" horiz-adv-x="170" 
d="M36 496h97v-106h-97v106zM116 295l24 -465h-110l24 465h62z" />
    <glyph glyph-name="cent" unicode="&#xa2;" horiz-adv-x="390" 
d="M223 690v-100q66 -8 96.5 -47t30.5 -116v-6.5t-1 -11.5h-93v14q0 83 -59 83q-37 0 -50 -24t-13 -89v-119q0 -66 13 -90.5t48 -24.5q32 0 46.5 21t14.5 67v14h93q1 -7 1 -12v-7q0 -68 -22.5 -106.5t-71.5 -52.5q-9 -3 -15 -4l-18 -3v-107h-53v107q-38 5 -60.5 17t-38.5 34
q-17 24 -24 53t-7 81v144q0 77 19.5 116.5t66.5 57.5q12 5 20 7t23 4v100h54z" />
    <glyph glyph-name="sterling" unicode="&#xa3;" horiz-adv-x="401" 
d="M304 291h-95q8 -24 11.5 -43.5t3.5 -39.5q0 -26 -7 -46t-24 -45l9 -4l24 -8q14 -5 21 -7t14 -2q21 0 33 21t12 58h88q0 -85 -30.5 -133.5t-82.5 -48.5q-20 0 -41 6.5t-61 24.5q-17 9 -24 11t-15 2q-16 0 -31.5 -11t-34.5 -36l-63 63q25 42 45.5 58.5t50.5 21.5
q14 20 19 36t5 36t-5 38.5t-19 47.5h-84v61h62l-5 16q-11 29 -18 49.5t-10.5 36t-5 28.5t-1.5 28q0 77 44.5 121.5t121.5 44.5t119.5 -47t42.5 -132v-12h-96q-1 53 -16.5 76.5t-50.5 23.5q-30 0 -48.5 -19.5t-18.5 -51.5q0 -19 5.5 -43t14.5 -50l19 -51l6 -18h116v-61z" />
    <glyph glyph-name="currency" unicode="&#xa4;" horiz-adv-x="705" 
d="M353 515q-29 0 -54.5 -11t-44.5 -30t-30 -44.5t-11 -54.5t11 -55t30 -45t44.5 -30t53.5 -11q29 0 54.5 11t44.5 30t30 45t11 55t-11 54.5t-30 44.5t-44 30t-54 11zM145 237q-23 33 -34 66.5t-11 71.5t11 70.5t34 67.5l-103 103l67 67l103 -103q36 24 69 34.5t72 10.5
q38 0 70.5 -10t67.5 -33l101 101l67 -67l-101 -101q25 -38 35.5 -70t10.5 -70t-10.5 -70t-33.5 -67l102 -102l-66 -68l-102 102q-67 -46 -142 -46q-38 0 -70.5 10.5t-70.5 35.5l-102 -101l-66 66z" />
    <glyph glyph-name="yen" unicode="&#xa5;" horiz-adv-x="0" 
 />
    <glyph glyph-name="section" unicode="&#xa7;" horiz-adv-x="410" 
d="M173 408q-24 -11 -34.5 -22.5t-10.5 -28.5q0 -22 20 -45l96 -106q38 18 38 56q0 14 -6.5 26t-20.5 29zM246 516v23q0 54 -40 54q-14 0 -23.5 -8.5t-9.5 -21.5q0 -15 16 -32l9 -9l140 -160q39 -43 39 -94q0 -84 -87 -117l11 -13q29 -37 29 -81q0 -51 -35 -82t-92 -31
q-64 0 -100 35t-36 97v8.5t2 11.5h92l-1.5 -10.5t-0.5 -7.5q0 -23 12 -36.5t32 -13.5q15 0 24 9t9 23t-18 37l-119 132q-20 22 -32.5 38.5t-20 30t-10.5 25.5t-3 26q0 38 24 65t76 45l-10 12q-27 32 -36 50.5t-9 43.5q0 49 36 80t93 31q60 0 96 -34.5t36 -94.5
q0 -6 -0.5 -11.5t-1.5 -19.5h-91z" />
    <glyph glyph-name="dieresis" unicode="&#xa8;" horiz-adv-x="360" 
d="M300 578h-86v88h86v-88zM146 578h-86v88h86v-88z" />
    <glyph glyph-name="copyright" unicode="&#xa9;" horiz-adv-x="771" 
d="M577 297q-6 -78 -55.5 -123t-130.5 -45q-45 0 -81.5 15t-62.5 42.5t-40 66.5t-14 86q0 46 15 84.5t41.5 66t63.5 43t82 15.5q37 0 68.5 -11t55.5 -30.5t38.5 -46t16.5 -58.5h-88q-17 72 -93 72q-51 0 -80 -36.5t-29 -99.5t29 -99t79 -36q84 0 96 94h89zM384 615
q-58 0 -108.5 -22t-88.5 -60.5t-60 -89.5t-22 -110q0 -58 22 -110t60 -90t88.5 -60.5t108.5 -22.5q57 0 107.5 22t88 60.5t59.5 90t22 109.5q0 59 -22 110.5t-59.5 90t-88 60.5t-107.5 22zM385 682q72 0 136 -27.5t111.5 -74.5t75 -111t27.5 -136t-27.5 -135.5t-75 -111
t-111.5 -74.5t-136 -27t-136 27t-111.5 74.5t-75 111t-27.5 135.5t27.5 136t75 111t111.5 74.5t136 27.5z" />
    <glyph glyph-name="ordfeminine" unicode="&#xaa;" horiz-adv-x="401" 
d="M252 523q-11 -7 -31 -10l-23 -3q-33 -5 -46 -13.5t-13 -26.5q0 -37 44 -37q69 0 69 70v20zM359 273h-304v54h304v-54zM260 386q-2 5 -2.5 6.5t-1.5 5.5l-1 5l-2 8q-24 -18 -44 -25t-49 -7q-50 0 -77.5 23t-27.5 65q0 43 28.5 63.5t100.5 28.5q23 3 37 5t21 5t9 8t2 12
q0 37 -51 37q-29 0 -40.5 -9.5t-16.5 -35.5h-77q6 101 136 101q69 0 99.5 -23.5t30.5 -76.5q0 -4 -0.5 -7.5t-0.5 -8.5v-39l-1 -38v-26q0 -30 2 -45t10 -32h-84z" />
    <glyph glyph-name="guillemotleft" unicode="&#xab;" horiz-adv-x="309" 
d="M33 178v143l102 85v-119l-38 -37l38 -38v-119zM173 178v143l102 85v-119l-38 -37l38 -38v-119z" />
    <glyph glyph-name="logicalnot" unicode="&#xac;" horiz-adv-x="500" 
d="M407 191h-400v85h486v-276h-86v191z" />
    <glyph glyph-name="macron" unicode="&#xaf;" horiz-adv-x="324" 
d="M60 659h204v-73h-204v73z" />
    <glyph glyph-name="degree" unicode="&#xb0;" horiz-adv-x="514" 
d="M256 613q-36 0 -61.5 -25.5t-25.5 -61.5q0 -37 25.5 -62.5t61.5 -25.5q37 0 62.5 25.5t25.5 62.5q0 36 -25.5 61.5t-62.5 25.5zM257 683q34 0 63.5 -12.5t51.5 -34t35 -50t13 -60.5q0 -33 -13 -61.5t-35 -49.5t-51.5 -33.5t-63.5 -12.5t-63.5 12.5t-51.5 33.5t-35 49.5
t-13 61.5q0 32 13 60.5t35 50t51.5 34t63.5 12.5z" />
    <glyph glyph-name="plusminus" unicode="&#xb1;" horiz-adv-x="492" 
d="M488 142v-95h-485v95h485zM198 458v185h95v-184h195v-95h-195v-178h-95v177h-195v95h195z" />
    <glyph glyph-name="acute" unicode="&#xb4;" horiz-adv-x="262" 
d="M105 666h97l-72 -89h-70z" />
    <glyph glyph-name="mu" unicode="&#xb5;" horiz-adv-x="500" 
d="M31 487h116v-261q0 -142 103 -142q101 0 101 145v257h117v-486h-116v59q-21 -39 -44.5 -55t-58.5 -16t-58 14.5t-44 50.5v-225h-116v659z" />
    <glyph glyph-name="paragraph" unicode="&#xb6;" horiz-adv-x="573" 
d="M227 323q-4 -1 -7.5 -1h-5.5q-39 0 -72 12.5t-56.5 35t-36.5 53.5t-13 69q0 59 29.5 101.5t81.5 59.5q25 7 56 11t63 4h247v-56h-48v-702h-75v702h-86v-702h-77v413z" />
    <glyph glyph-name="periodcentered" unicode="&#xb7;" horiz-adv-x="174" 
d="M141 287h-108v119h108v-119z" />
    <glyph glyph-name="cedilla" unicode="&#xb8;" horiz-adv-x="334" 
d="M207 -114l-22 -56h-47l17 56h-28v68h80v-68z" />
    <glyph glyph-name="ordmasculine" unicode="&#xba;" horiz-adv-x="414" 
d="M206 621q-32 0 -51 -24t-19 -66q0 -44 18.5 -68t52.5 -24q32 0 50.5 24t18.5 67t-18.5 67t-51.5 24zM363 273h-304v54h304v-54zM207 682q69 0 110 -41t41 -110t-41.5 -110.5t-110.5 -41.5t-110.5 41.5t-41.5 110.5q0 68 42 109.5t111 41.5z" />
    <glyph glyph-name="guillemotright" unicode="&#xbb;" horiz-adv-x="309" 
d="M275 321v-143l-102 -85v119l38 38l-38 37v119zM135 321v-143l-102 -85v119l38 38l-38 37v119z" />
    <glyph glyph-name="questiondown" unicode="&#xbf;" horiz-adv-x="374" 
d="M137 496h97v-106h-97v106zM230 294v-20v-8q0 -37 -2.5 -65t-10 -54t-21 -54.5t-34.5 -66.5q-17 -29 -22.5 -43.5t-5.5 -30.5q0 -20 12 -31.5t32 -11.5q23 0 39.5 18.5t30.5 60.5l93 -27q-22 -72 -62 -104.5t-106 -32.5q-63 0 -101.5 35.5t-38.5 93.5q0 15 2.5 27.5
t8 26.5t15 30t24.5 38q20 30 32.5 52t19 42t8.5 42.5t2 55.5v27h85z" />
    <glyph glyph-name="Agrave" unicode="&#xc0;" horiz-adv-x="417" 
d="M259 240l-55 298l-53 -298h108zM134 145l-27 -145h-101l128 666h142l134 -666h-105l-29 145h-142zM191 733l-72 88h96l46 -88h-70z" />
    <glyph glyph-name="Aacute" unicode="&#xc1;" horiz-adv-x="417" 
d="M259 240l-55 298l-53 -298h108zM134 145l-27 -145h-101l128 666h142l134 -666h-105l-29 145h-142zM182 822h97l-72 -89h-70z" />
    <glyph glyph-name="Acircumflex" unicode="&#xc2;" horiz-adv-x="417" 
d="M259 240l-55 298l-53 -298h108zM134 145l-27 -145h-101l128 666h142l134 -666h-105l-29 145h-142zM260 821l63 -88h-83l-32 33l-32 -33h-83l62 88h105z" />
    <glyph glyph-name="Atilde" unicode="&#xc3;" horiz-adv-x="417" 
d="M259 240l-55 298l-53 -298h108zM134 145l-27 -145h-101l128 666h142l134 -666h-105l-29 145h-142zM117 806q15 9 27.5 12t29.5 3q12 0 21.5 -1.5t22.5 -6.5q23 -8 31 -9.5t19 -1.5q12 0 20.5 3t28.5 14v-69q-19 -11 -28 -14t-21 -3q-11 0 -19 1.5t-31 9.5
q-13 5 -22.5 6.5t-21.5 1.5q-17 0 -29.5 -3.5t-27.5 -11.5v69z" />
    <glyph glyph-name="Adieresis" unicode="&#xc4;" horiz-adv-x="417" 
d="M259 240l-55 298l-53 -298h108zM134 145l-27 -145h-101l128 666h142l134 -666h-105l-29 145h-142zM328 733h-86v88h86v-88zM174 733h-86v88h86v-88z" />
    <glyph glyph-name="Aring" unicode="&#xc5;" horiz-adv-x="417" 
d="M259 240l-55 298l-53 -298h108zM134 145l-27 -145h-101l128 666h142l134 -666h-105l-29 145h-142zM208 838q-15 0 -26 -10.5t-11 -24.5t11 -24.5t26 -10.5t26 10.5t11 24.5t-11 24.5t-26 10.5zM208 873q30 0 51.5 -20.5t21.5 -49.5t-21 -49.5t-52 -20.5t-52.5 20.5
t-21.5 49.5t22 49.5t52 20.5z" />
    <glyph glyph-name="AE" unicode="&#xc6;" horiz-adv-x="678" 
d="M342 538l-108 -298h108v298zM199 145l-55 -145h-111l254 666h358v-95h-199v-175h146v-95h-146v-206h199v-95h-303v145h-143z" />
    <glyph glyph-name="Ccedilla" unicode="&#xc7;" horiz-adv-x="431" 
d="M255 -114l-22 -56h-47l17 56h-28v68h80v-68zM291 449v14q0 117 -79 117q-42 0 -59 -29t-17 -101v-221q0 -80 17 -111.5t60 -31.5q81 0 81 131q0 3 -0.5 7t-0.5 10h104v-23q0 -109 -46 -165t-137 -56q-51 0 -90 19.5t-59 54.5q-10 17 -16 32.5t-9.5 35.5t-5 46.5
t-1.5 64.5v186q0 41 1.5 69.5t6 49t11.5 36t19 30.5q47 62 142 62q86 0 133.5 -54t47.5 -153v-20h-103z" />
    <glyph glyph-name="Egrave" unicode="&#xc8;" horiz-adv-x="349" 
d="M335 571h-199v-175h147v-95h-146v-206h199v-95h-302v666h301v-95zM185 733l-72 88h96l46 -88h-70z" />
    <glyph glyph-name="Eacute" unicode="&#xc9;" horiz-adv-x="349" 
d="M335 571h-199v-175h147v-95h-146v-206h199v-95h-302v666h301v-95zM158 822h97l-72 -89h-70z" />
    <glyph glyph-name="Ecircumflex" unicode="&#xca;" horiz-adv-x="349" 
d="M335 571h-199v-175h147v-95h-146v-206h199v-95h-302v666h301v-95zM236 821l63 -88h-83l-32 33l-32 -33h-83l62 88h105z" />
    <glyph glyph-name="Edieresis" unicode="&#xcb;" horiz-adv-x="349" 
d="M335 571h-199v-175h147v-95h-146v-206h199v-95h-302v666h301v-95zM304 733h-86v88h86v-88zM150 733h-86v88h86v-88z" />
    <glyph glyph-name="Igrave" unicode="&#xcc;" horiz-adv-x="170" 
d="M136 0h-103v666h103v-666zM86 733l-72 88h96l46 -88h-70z" />
    <glyph glyph-name="Iacute" unicode="&#xcd;" horiz-adv-x="170" 
d="M136 0h-103v666h103v-666zM59 822h97l-72 -89h-70z" />
    <glyph glyph-name="Icircumflex" unicode="&#xce;" horiz-adv-x="170" 
d="M136 0h-103v666h103v-666zM137 821l63 -88h-83l-32 33l-32 -33h-83l62 88h105z" />
    <glyph glyph-name="Idieresis" unicode="&#xcf;" horiz-adv-x="170" 
d="M136 0h-103v666h103v-666zM205 733h-86v88h86v-88zM51 733h-86v88h86v-88z" />
    <glyph glyph-name="Ntilde" unicode="&#xd1;" horiz-adv-x="436" 
d="M403 0h-92l-180 437v-437h-98v666h104l167 -408v408h99v-666zM118 806q15 9 27.5 12t29.5 3q12 0 21.5 -1.5t22.5 -6.5q23 -8 31 -9.5t19 -1.5q12 0 20.5 3t28.5 14v-69q-19 -11 -28 -14t-21 -3q-11 0 -19 1.5t-31 9.5q-13 5 -22.5 6.5t-21.5 1.5q-17 0 -29.5 -3.5
t-27.5 -11.5v69z" />
    <glyph glyph-name="Ograve" unicode="&#xd2;" horiz-adv-x="404" 
d="M123 213q0 -71 17 -99t62 -28q44 0 61 28t17 99v239q0 72 -17 100t-61 28q-44 -1 -61.5 -29t-17.5 -99v-239zM384 212q0 -57 -9 -94t-29 -64q-48 -64 -144 -64q-48 1 -85.5 17t-58.5 47q-21 29 -29.5 65t-8.5 93v242q0 57 9 94t29 64q47 64 144 64q48 0 85 -16.5
t59 -47.5q20 -29 29 -65t9 -93v-242zM202 743l-72 88h96l46 -88h-70z" />
    <glyph glyph-name="Oacute" unicode="&#xd3;" horiz-adv-x="404" 
d="M123 213q0 -71 17 -99t62 -28q44 0 61 28t17 99v239q0 72 -17 100t-61 28q-44 -1 -61.5 -29t-17.5 -99v-239zM384 212q0 -57 -9 -94t-29 -64q-48 -64 -144 -64q-48 1 -85.5 17t-58.5 47q-21 29 -29.5 65t-8.5 93v242q0 57 9 94t29 64q47 64 144 64q48 0 85 -16.5
t59 -47.5q20 -29 29 -65t9 -93v-242zM175 832h97l-72 -89h-70z" />
    <glyph glyph-name="Ocircumflex" unicode="&#xd4;" horiz-adv-x="404" 
d="M123 213q0 -71 17 -99t62 -28q44 0 61 28t17 99v239q0 72 -17 100t-61 28q-44 -1 -61.5 -29t-17.5 -99v-239zM384 212q0 -57 -9 -94t-29 -64q-48 -64 -144 -64q-48 1 -85.5 17t-58.5 47q-21 29 -29.5 65t-8.5 93v242q0 57 9 94t29 64q47 64 144 64q48 0 85 -16.5
t59 -47.5q20 -29 29 -65t9 -93v-242zM253 831l63 -88h-83l-32 33l-32 -33h-83l62 88h105z" />
    <glyph glyph-name="Otilde" unicode="&#xd5;" horiz-adv-x="404" 
d="M123 213q0 -71 17 -99t62 -28q44 0 61 28t17 99v239q0 72 -17 100t-61 28q-44 -1 -61.5 -29t-17.5 -99v-239zM384 212q0 -57 -9 -94t-29 -64q-48 -64 -144 -64q-48 1 -85.5 17t-58.5 47q-21 29 -29.5 65t-8.5 93v242q0 57 9 94t29 64q47 64 144 64q48 0 85 -16.5
t59 -47.5q20 -29 29 -65t9 -93v-242zM113 816q15 9 27.5 12t29.5 3q12 0 21.5 -1.5t22.5 -6.5q23 -8 31 -9.5t19 -1.5q12 0 20.5 3t28.5 14v-69q-19 -11 -28 -14t-21 -3q-11 0 -19 1.5t-31 9.5q-13 5 -22.5 6.5t-21.5 1.5q-17 0 -29.5 -3.5t-27.5 -11.5v69z" />
    <glyph glyph-name="Odieresis" unicode="&#xd6;" horiz-adv-x="404" 
d="M123 213q0 -71 17 -99t62 -28q44 0 61 28t17 99v239q0 72 -17 100t-61 28q-44 -1 -61.5 -29t-17.5 -99v-239zM384 212q0 -57 -9 -94t-29 -64q-48 -64 -144 -64q-48 1 -85.5 17t-58.5 47q-21 29 -29.5 65t-8.5 93v242q0 57 9 94t29 64q47 64 144 64q48 0 85 -16.5
t59 -47.5q20 -29 29 -65t9 -93v-242zM322 743h-86v88h86v-88zM168 743h-86v88h86v-88z" />
    <glyph glyph-name="Oslash" unicode="&#xd8;" horiz-adv-x="430" 
d="M162 106q22 -20 53 -20q44 0 61 28t17 99v267zM267 560q-22 20 -54 20q-43 0 -60 -28.5t-17 -99.5v-267zM366 688l-21 -59q29 -31 40.5 -70t11.5 -105v-242q0 -57 -9 -94t-29 -64q-49 -64 -144 -64q-29 0 -45.5 3t-42.5 14l-10 -28h-53l20 58q-28 32 -40 70.5t-11 104.5
v242q0 57 9 94t29 64q47 64 143 64q15 0 26 -0.5t20.5 -2.5t19 -5.5l22.5 -8.5l10 29h54z" />
    <glyph glyph-name="Ugrave" unicode="&#xd9;" horiz-adv-x="419" 
d="M385 666v-451q0 -64 -8.5 -101t-29.5 -65q-47 -59 -138 -59q-45 1 -81 15.5t-57 43.5q-22 30 -30 66t-8 99v452h103v-468q0 -60 17 -86t56 -26t56 26t17 86v468h103zM210 733l-72 88h96l46 -88h-70z" />
    <glyph glyph-name="Uacute" unicode="&#xda;" horiz-adv-x="419" 
d="M385 666v-451q0 -64 -8.5 -101t-29.5 -65q-47 -59 -138 -59q-45 1 -81 15.5t-57 43.5q-22 30 -30 66t-8 99v452h103v-468q0 -60 17 -86t56 -26t56 26t17 86v468h103zM183 822h97l-72 -89h-70z" />
    <glyph glyph-name="Ucircumflex" unicode="&#xdb;" horiz-adv-x="419" 
d="M385 666v-451q0 -64 -8.5 -101t-29.5 -65q-47 -59 -138 -59q-45 1 -81 15.5t-57 43.5q-22 30 -30 66t-8 99v452h103v-468q0 -60 17 -86t56 -26t56 26t17 86v468h103zM261 821l63 -88h-83l-32 33l-32 -33h-83l62 88h105z" />
    <glyph glyph-name="Udieresis" unicode="&#xdc;" horiz-adv-x="419" 
d="M385 666v-451q0 -64 -8.5 -101t-29.5 -65q-47 -59 -138 -59q-45 1 -81 15.5t-57 43.5q-22 30 -30 66t-8 99v452h103v-468q0 -60 17 -86t56 -26t56 26t17 86v468h103zM329 733h-86v88h86v-88zM175 733h-86v88h86v-88z" />
    <glyph glyph-name="germandbls" unicode="&#xdf;" horiz-adv-x="369" 
d="M33 0v490q0 54 7 83t27 53q38 47 105 47q59 0 95 -36t36 -94q0 -30 -11 -51.5t-37 -38.5q24 -9 39.5 -22t25 -36t13 -58t3.5 -88q0 -49 -2.5 -84.5t-8.5 -62t-15 -44.5t-22 -31q-17 -16 -36 -22t-48 -6h-13.5t-15.5 1v90q4 0 7 -0.5t5 -0.5q15 0 24.5 7t15.5 24.5t8 47.5
t2 76q0 51 -3 82.5t-12 49t-25 24t-42 6.5v90q55 0 55 48q0 20 -11 32t-29 12q-23 0 -33.5 -18t-10.5 -58v-512h-93z" />
    <glyph glyph-name="agrave" unicode="&#xe0;" 
d="M233 255q-62 -32 -88.5 -61t-26.5 -64q0 -24 13 -40t34 -16q39 0 68 45v136zM241 0q-5 13 -6.5 25.5t-1.5 32.5q-34 -37 -58.5 -50.5t-54.5 -13.5q-48 0 -74.5 34t-26.5 96q0 71 44 109q11 11 23 19.5t28 17.5t38 19l53 24l28 11v27q0 38 -11.5 54t-37.5 16t-39.5 -16.5
t-15.5 -53.5h-98q5 74 47.5 113t117.5 39q70 0 102 -38q9 -10 14.5 -19.5t8.5 -21.5t4 -28.5t1 -39.5v-221q0 -28 0.5 -48t1.5 -34.5t3.5 -26.5l5.5 -26h-96zM179 570l-72 88h96l46 -88h-70z" />
    <glyph glyph-name="aacute" unicode="&#xe1;" 
d="M233 255q-62 -32 -88.5 -61t-26.5 -64q0 -24 13 -40t34 -16q39 0 68 45v136zM241 0q-5 13 -6.5 25.5t-1.5 32.5q-34 -37 -58.5 -50.5t-54.5 -13.5q-48 0 -74.5 34t-26.5 96q0 71 44 109q11 11 23 19.5t28 17.5t38 19l53 24l28 11v27q0 38 -11.5 54t-37.5 16t-39.5 -16.5
t-15.5 -53.5h-98q5 74 47.5 113t117.5 39q70 0 102 -38q9 -10 14.5 -19.5t8.5 -21.5t4 -28.5t1 -39.5v-221q0 -28 0.5 -48t1.5 -34.5t3.5 -26.5l5.5 -26h-96zM152 659h97l-72 -89h-70z" />
    <glyph glyph-name="acircumflex" unicode="&#xe2;" 
d="M233 255q-62 -32 -88.5 -61t-26.5 -64q0 -24 13 -40t34 -16q39 0 68 45v136zM241 0q-5 13 -6.5 25.5t-1.5 32.5q-34 -37 -58.5 -50.5t-54.5 -13.5q-48 0 -74.5 34t-26.5 96q0 71 44 109q11 11 23 19.5t28 17.5t38 19l53 24l28 11v27q0 38 -11.5 54t-37.5 16t-39.5 -16.5
t-15.5 -53.5h-98q5 74 47.5 113t117.5 39q70 0 102 -38q9 -10 14.5 -19.5t8.5 -21.5t4 -28.5t1 -39.5v-221q0 -28 0.5 -48t1.5 -34.5t3.5 -26.5l5.5 -26h-96zM230 658l63 -88h-83l-32 33l-32 -33h-83l62 88h105z" />
    <glyph glyph-name="atilde" unicode="&#xe3;" 
d="M233 255q-62 -32 -88.5 -61t-26.5 -64q0 -24 13 -40t34 -16q39 0 68 45v136zM241 0q-5 13 -6.5 25.5t-1.5 32.5q-34 -37 -58.5 -50.5t-54.5 -13.5q-48 0 -74.5 34t-26.5 96q0 71 44 109q11 11 23 19.5t28 17.5t38 19l53 24l28 11v27q0 38 -11.5 54t-37.5 16t-39.5 -16.5
t-15.5 -53.5h-98q5 74 47.5 113t117.5 39q70 0 102 -38q9 -10 14.5 -19.5t8.5 -21.5t4 -28.5t1 -39.5v-221q0 -28 0.5 -48t1.5 -34.5t3.5 -26.5l5.5 -26h-96zM78 643q15 9 27.5 12t29.5 3q12 0 21.5 -1.5t22.5 -6.5q23 -8 31 -9.5t19 -1.5q12 0 20.5 3t28.5 14v-69
q-19 -11 -28 -14t-21 -3q-11 0 -19 1.5t-31 9.5q-13 5 -22.5 6.5t-21.5 1.5q-17 0 -29.5 -3.5t-27.5 -11.5v69z" />
    <glyph glyph-name="adieresis" unicode="&#xe4;" 
d="M233 255q-62 -32 -88.5 -61t-26.5 -64q0 -24 13 -40t34 -16q39 0 68 45v136zM241 0q-5 13 -6.5 25.5t-1.5 32.5q-34 -37 -58.5 -50.5t-54.5 -13.5q-48 0 -74.5 34t-26.5 96q0 71 44 109q11 11 23 19.5t28 17.5t38 19l53 24l28 11v27q0 38 -11.5 54t-37.5 16t-39.5 -16.5
t-15.5 -53.5h-98q5 74 47.5 113t117.5 39q70 0 102 -38q9 -10 14.5 -19.5t8.5 -21.5t4 -28.5t1 -39.5v-221q0 -28 0.5 -48t1.5 -34.5t3.5 -26.5l5.5 -26h-96zM299 570h-86v88h86v-88zM145 570h-86v88h86v-88z" />
    <glyph glyph-name="aring" unicode="&#xe5;" 
d="M233 255q-62 -32 -88.5 -61t-26.5 -64q0 -24 13 -40t34 -16q39 0 68 45v136zM241 0q-5 13 -6.5 25.5t-1.5 32.5q-34 -37 -58.5 -50.5t-54.5 -13.5q-48 0 -74.5 34t-26.5 96q0 71 44 109q11 11 23 19.5t28 17.5t38 19l53 24l28 11v27q0 38 -11.5 54t-37.5 16t-39.5 -16.5
t-15.5 -53.5h-98q5 74 47.5 113t117.5 39q70 0 102 -38q9 -10 14.5 -19.5t8.5 -21.5t4 -28.5t1 -39.5v-221q0 -28 0.5 -48t1.5 -34.5t3.5 -26.5l5.5 -26h-96zM178 675q-15 0 -26 -10.5t-11 -24.5t11 -24.5t26 -10.5t26 10.5t11 24.5t-11 24.5t-26 10.5zM178 710
q30 0 51.5 -20.5t21.5 -49.5t-21 -49.5t-52 -20.5t-52.5 20.5t-21.5 49.5t22 49.5t52 20.5z" />
    <glyph glyph-name="ae" unicode="&#xe6;" horiz-adv-x="589" 
d="M461 341q0 45 -14 64.5t-46 19.5q-33 0 -47.5 -19.5t-14.5 -64.5v-27h122v27zM246 255q-62 -32 -88.5 -61t-26.5 -64q0 -24 13.5 -40t34.5 -16q39 0 67 45v136zM340 233l-1 -45q0 -66 13.5 -90t49.5 -23q60 0 60 83v13h93v-18q0 -43 -7.5 -70t-26.5 -46q-42 -43 -118 -43
q-93 0 -131 55q-36 -31 -64.5 -43t-63.5 -12q-53 0 -82 34t-29 97q0 69 43 108q11 11 23 19.5t28 17.5t38 19l53 24l28 11v27q0 38 -11.5 54t-37.5 16t-39 -16.5t-16 -53.5h-98q6 74 48 113t117 39q57 0 91 -25q40 25 99 25q38 0 68 -11.5t49 -33.5q22 -25 30 -55.5t8 -87.5
v-82h-214z" />
    <glyph glyph-name="ccedilla" unicode="&#xe7;" horiz-adv-x="376" 
d="M227 -114l-22 -56h-47l17 56h-28v68h80v-68zM249 324v14q0 83 -60 83q-36 0 -49.5 -24t-13.5 -89v-119q0 -66 13.5 -90.5t48.5 -24.5q32 0 46.5 21t14.5 67v5.5t-1 8.5h94v-19q0 -45 -8 -73t-27 -49q-40 -45 -118 -45q-88 0 -125 52q-18 24 -24.5 53t-6.5 81v144
q0 52 7 81.5t24 52.5q39 52 124 52q80 0 119 -44q20 -21 27.5 -48t7.5 -72v-18h-93z" />
    <glyph glyph-name="egrave" unicode="&#xe8;" horiz-adv-x="349" 
d="M234 341q0 45 -14 64.5t-46 19.5t-46.5 -19.5t-14.5 -64.5v-27h121v27zM114 233l-1 -45q0 -66 13.5 -90t49.5 -23q60 0 60 83v5t-1 8h94v-18q0 -45 -8 -72t-27 -47q-41 -44 -118 -44q-88 0 -125 52q-17 24 -24 53.5t-7 80.5v149q0 30 2 51.5t6.5 37.5t12 28.5t18.5 23.5
q41 40 114 40q77 0 117 -46q22 -25 30 -55.5t8 -89.5v-82h-214zM175 573l-72 88h96l46 -88h-70z" />
    <glyph glyph-name="eacute" unicode="&#xe9;" horiz-adv-x="349" 
d="M234 341q0 45 -14 64.5t-46 19.5t-46.5 -19.5t-14.5 -64.5v-27h121v27zM114 233l-1 -45q0 -66 13.5 -90t49.5 -23q60 0 60 83v5t-1 8h94v-18q0 -45 -8 -72t-27 -47q-41 -44 -118 -44q-88 0 -125 52q-17 24 -24 53.5t-7 80.5v149q0 30 2 51.5t6.5 37.5t12 28.5t18.5 23.5
q41 40 114 40q77 0 117 -46q22 -25 30 -55.5t8 -89.5v-82h-214zM148 662h97l-72 -89h-70z" />
    <glyph glyph-name="ecircumflex" unicode="&#xea;" horiz-adv-x="349" 
d="M234 341q0 45 -14 64.5t-46 19.5t-46.5 -19.5t-14.5 -64.5v-27h121v27zM114 233l-1 -45q0 -66 13.5 -90t49.5 -23q60 0 60 83v5t-1 8h94v-18q0 -45 -8 -72t-27 -47q-41 -44 -118 -44q-88 0 -125 52q-17 24 -24 53.5t-7 80.5v149q0 30 2 51.5t6.5 37.5t12 28.5t18.5 23.5
q41 40 114 40q77 0 117 -46q22 -25 30 -55.5t8 -89.5v-82h-214zM227 661l63 -88h-83l-32 33l-32 -33h-83l62 88h105z" />
    <glyph glyph-name="edieresis" unicode="&#xeb;" horiz-adv-x="349" 
d="M234 341q0 45 -14 64.5t-46 19.5t-46.5 -19.5t-14.5 -64.5v-27h121v27zM114 233l-1 -45q0 -66 13.5 -90t49.5 -23q60 0 60 83v5t-1 8h94v-18q0 -45 -8 -72t-27 -47q-41 -44 -118 -44q-88 0 -125 52q-17 24 -24 53.5t-7 80.5v149q0 30 2 51.5t6.5 37.5t12 28.5t18.5 23.5
q41 40 114 40q77 0 117 -46q22 -25 30 -55.5t8 -89.5v-82h-214zM295 573h-86v88h86v-88zM141 573h-86v88h86v-88z" />
    <glyph glyph-name="igrave" unicode="&#xec;" horiz-adv-x="160" 
d="M126 0h-93v496h93v-496zM81 563l-72 88h96l46 -88h-70z" />
    <glyph glyph-name="iacute" unicode="&#xed;" horiz-adv-x="160" 
d="M126 0h-93v496h93v-496zM54 652h97l-72 -89h-70z" />
    <glyph glyph-name="icircumflex" unicode="&#xee;" horiz-adv-x="160" 
d="M126 0h-93v496h93v-496zM132 651l63 -88h-83l-32 33l-32 -33h-83l62 88h105z" />
    <glyph glyph-name="idieresis" unicode="&#xef;" horiz-adv-x="160" 
d="M126 0h-93v496h93v-496zM200 563h-86v88h86v-88zM46 563h-86v88h86v-88z" />
    <glyph glyph-name="ntilde" unicode="&#xf1;" 
d="M126 432q33 38 62 54.5t61 16.5q82 0 82 -115v-388h-93v363q0 33 -8 45.5t-28 12.5q-40 0 -76 -50v-371h-93v496h93v-64zM82 643q15 9 27.5 12t29.5 3q12 0 21.5 -1.5t22.5 -6.5q23 -8 31 -9.5t19 -1.5q12 0 20.5 3t28.5 14v-69q-19 -11 -28 -14t-21 -3q-11 0 -19 1.5
t-31 9.5q-13 5 -22.5 6.5t-21.5 1.5q-17 0 -29.5 -3.5t-27.5 -11.5v69z" />
    <glyph glyph-name="ograve" unicode="&#xf2;" horiz-adv-x="344" 
d="M113 166q0 -48 14 -70t45 -21q31 0 45 21t14 69v165q0 48 -14 69.5t-45 21.5t-45 -21.5t-14 -69.5v-164zM324 172q0 -60 -8 -90t-31 -52q-41 -40 -113 -40q-35 1 -64 10.5t-49 29.5q-12 12 -19.5 24.5t-12 28.5t-6 37.5t-1.5 50.5v154q0 59 8.5 89t30.5 52q41 40 113 40
q73 0 113 -40q12 -12 19.5 -24t12 -28.5t6 -37.5t1.5 -51v-153zM173 573l-72 88h96l46 -88h-70z" />
    <glyph glyph-name="oacute" unicode="&#xf3;" horiz-adv-x="344" 
d="M113 166q0 -48 14 -70t45 -21q31 0 45 21t14 69v165q0 48 -14 69.5t-45 21.5t-45 -21.5t-14 -69.5v-164zM324 172q0 -60 -8 -90t-31 -52q-41 -40 -113 -40q-35 1 -64 10.5t-49 29.5q-12 12 -19.5 24.5t-12 28.5t-6 37.5t-1.5 50.5v154q0 59 8.5 89t30.5 52q41 40 113 40
q73 0 113 -40q12 -12 19.5 -24t12 -28.5t6 -37.5t1.5 -51v-153zM146 662h97l-72 -89h-70z" />
    <glyph glyph-name="ocircumflex" unicode="&#xf4;" horiz-adv-x="344" 
d="M113 166q0 -48 14 -70t45 -21q31 0 45 21t14 69v165q0 48 -14 69.5t-45 21.5t-45 -21.5t-14 -69.5v-164zM324 172q0 -60 -8 -90t-31 -52q-41 -40 -113 -40q-35 1 -64 10.5t-49 29.5q-12 12 -19.5 24.5t-12 28.5t-6 37.5t-1.5 50.5v154q0 59 8.5 89t30.5 52q41 40 113 40
q73 0 113 -40q12 -12 19.5 -24t12 -28.5t6 -37.5t1.5 -51v-153zM225 661l63 -88h-83l-32 33l-32 -33h-83l62 88h105z" />
    <glyph glyph-name="otilde" unicode="&#xf5;" horiz-adv-x="344" 
d="M113 166q0 -48 14 -70t45 -21q31 0 45 21t14 69v165q0 48 -14 69.5t-45 21.5t-45 -21.5t-14 -69.5v-164zM324 172q0 -60 -8 -90t-31 -52q-41 -40 -113 -40q-35 1 -64 10.5t-49 29.5q-12 12 -19.5 24.5t-12 28.5t-6 37.5t-1.5 50.5v154q0 59 8.5 89t30.5 52q41 40 113 40
q73 0 113 -40q12 -12 19.5 -24t12 -28.5t6 -37.5t1.5 -51v-153zM72 646q15 9 27.5 12t29.5 3q12 0 21.5 -1.5t22.5 -6.5q23 -8 31 -9.5t19 -1.5q12 0 20.5 3t28.5 14v-69q-19 -11 -28 -14t-21 -3q-11 0 -19 1.5t-31 9.5q-13 5 -22.5 6.5t-21.5 1.5q-17 0 -29.5 -3.5
t-27.5 -11.5v69z" />
    <glyph glyph-name="odieresis" unicode="&#xf6;" horiz-adv-x="344" 
d="M113 166q0 -48 14 -70t45 -21q31 0 45 21t14 69v165q0 48 -14 69.5t-45 21.5t-45 -21.5t-14 -69.5v-164zM324 172q0 -60 -8 -90t-31 -52q-41 -40 -113 -40q-35 1 -64 10.5t-49 29.5q-12 12 -19.5 24.5t-12 28.5t-6 37.5t-1.5 50.5v154q0 59 8.5 89t30.5 52q41 40 113 40
q73 0 113 -40q12 -12 19.5 -24t12 -28.5t6 -37.5t1.5 -51v-153zM293 573h-86v88h86v-88zM139 573h-86v88h86v-88z" />
    <glyph glyph-name="divide" unicode="&#xf7;" horiz-adv-x="492" 
d="M489 387v-95h-486v95h486zM245 227q30 0 51 -21t21 -50q0 -30 -21 -51t-51 -21q-29 0 -50 21t-21 51q0 29 21 50t50 21zM245 595q30 0 51 -21t21 -51q0 -29 -21 -50t-51 -21q-29 0 -50 21t-21 50q0 30 21 51t50 21z" />
    <glyph glyph-name="oslash" unicode="&#xf8;" horiz-adv-x="371" 
d="M153 84q9 -6 15 -8t17 -2q31 0 45 21.5t14 69.5v193zM216 413q-9 5 -14.5 6.5t-15.5 1.5q-32 0 -46 -21.5t-14 -69.5v-184zM304 536l-20 -58q16 -13 26.5 -26t16.5 -30t8.5 -40.5t2.5 -56.5v-153q0 -60 -8.5 -90t-31.5 -52q-40 -40 -113 -40q-20 1 -31 2.5t-30 7.5
l-13 -40h-46l19 59q-15 12 -25 25.5t-15.5 30.5t-8 40t-2.5 56v154q0 59 8.5 89t30.5 52q41 40 114 40q21 0 31.5 -1.5t26.5 -6.5l13 38h47z" />
    <glyph glyph-name="ugrave" unicode="&#xf9;" 
d="M331 0h-93v64q-33 -38 -62 -54t-62 -16q-42 0 -61.5 27.5t-19.5 86.5v388h93v-363q0 -33 8 -46t28 -13q19 0 39 13.5t37 36.5v372h93v-496zM183 563l-72 88h96l46 -88h-70z" />
    <glyph glyph-name="uacute" unicode="&#xfa;" 
d="M331 0h-93v64q-33 -38 -62 -54t-62 -16q-42 0 -61.5 27.5t-19.5 86.5v388h93v-363q0 -33 8 -46t28 -13q19 0 39 13.5t37 36.5v372h93v-496zM156 652h97l-72 -89h-70z" />
    <glyph glyph-name="ucircumflex" unicode="&#xfb;" 
d="M331 0h-93v64q-33 -38 -62 -54t-62 -16q-42 0 -61.5 27.5t-19.5 86.5v388h93v-363q0 -33 8 -46t28 -13q19 0 39 13.5t37 36.5v372h93v-496zM234 651l63 -88h-83l-32 33l-32 -33h-83l62 88h105z" />
    <glyph glyph-name="udieresis" unicode="&#xfc;" 
d="M331 0h-93v64q-33 -38 -62 -54t-62 -16q-42 0 -61.5 27.5t-19.5 86.5v388h93v-363q0 -33 8 -46t28 -13q19 0 39 13.5t37 36.5v372h93v-496zM302 563h-86v88h86v-88zM148 563h-86v88h86v-88z" />
    <glyph glyph-name="ydieresis" unicode="&#xff;" horiz-adv-x="347" 
d="M340 496l-107 -475q-8 -33 -14.5 -56t-12.5 -39.5t-12.5 -28t-14.5 -21.5q-25 -30 -56 -40q-11 -4 -20 -6t-19.5 -3.5t-25 -2t-37.5 -0.5v95h16q38 0 61.5 22t23.5 59q0 13 -6 43l-110 453h98l73 -339l67 339h96zM294 563h-86v88h86v-88zM140 563h-86v88h86v-88z" />
    <glyph glyph-name="dotlessi" unicode="&#x131;" horiz-adv-x="160" 
d="M126 0h-93v496h93v-496z" />
    <glyph glyph-name="OE" unicode="&#x152;" horiz-adv-x="621" 
d="M235 571q-55 0 -77 -31.5t-22 -110.5v-192q0 -79 22 -110.5t77 -31.5h50v476h-50zM588 571h-199v-175h146v-95h-146v-206h199v-95h-361q-100 0 -147 50.5t-47 157.5v250q0 106 47 157t146 51h362v-95z" />
    <glyph glyph-name="oe" unicode="&#x153;" horiz-adv-x="587" 
d="M459 341q0 45 -14 64.5t-46 19.5q-33 0 -47 -19.5t-14 -64.5v-27h121v27zM126 166q0 -48 14 -70t45 -21q31 0 45 21t14 69v165q0 48 -13.5 69.5t-45.5 21.5q-31 0 -45 -21.5t-14 -69.5v-164zM338 233v-34q0 -37 3 -61t10 -38.5t19 -19.5t30 -5q61 0 61 83q0 2 -0.5 5
t-0.5 8h94v-18q0 -45 -8 -72t-27 -47q-41 -44 -118 -44q-69 0 -109 34q-22 -18 -48 -26t-59 -8q-35 1 -64 10.5t-49 29.5q-11 12 -18.5 24.5t-12 28.5t-6.5 37.5t-2 50.5v154q0 59 8.5 89t30.5 52q41 40 113 40q68 0 106 -34q43 34 107 34q77 0 117 -46q22 -25 29.5 -55.5
t7.5 -89.5v-82h-214z" />
    <glyph glyph-name="Ydieresis" unicode="&#x178;" horiz-adv-x="420" 
d="M259 0h-103v260l-150 406h114l89 -282l92 282h112l-154 -406v-260zM330 733h-86v88h86v-88zM176 733h-86v88h86v-88z" />
    <glyph glyph-name="florin" unicode="&#x192;" horiz-adv-x="462" 
d="M351 413h-90l-114 -583h-93l113 583h-80l12 61h80l27 136q8 46 19 68t32 37q19 13 40.5 19t50.5 6q17 0 29 -1.5t31 -5.5l-17 -87q-15 5 -22.5 7t-17.5 2q-25 0 -37 -14t-19 -51l-22 -116h90z" />
    <glyph glyph-name="circumflex" unicode="&#x2c6;" horiz-adv-x="350" 
d="M227 666l63 -88h-83l-32 33l-32 -33h-83l62 88h105z" />
    <glyph glyph-name="caron" unicode="&#x2c7;" horiz-adv-x="350" 
d="M123 578l-63 88h83l32 -33l31 33h84l-63 -88h-104z" />
    <glyph glyph-name="breve" unicode="&#x2d8;" horiz-adv-x="349" 
d="M289 630q-39 -50 -115 -50t-114 50l60 34q28 -18 54 -18q14 0 26.5 4t28.5 14z" />
    <glyph glyph-name="dotaccent" unicode="&#x2d9;" horiz-adv-x="206" 
d="M146 578h-86v88h86v-88z" />
    <glyph glyph-name="ring" unicode="&#x2da;" horiz-adv-x="266" 
d="M133 643q-15 0 -26 -10.5t-11 -24.5t11 -24.5t26 -10.5t26 10.5t11 24.5t-11 24.5t-26 10.5zM133 678q30 0 51.5 -20.5t21.5 -49.5t-21 -49.5t-52 -20.5t-52.5 20.5t-21.5 49.5t22 49.5t52 20.5z" />
    <glyph glyph-name="ogonek" unicode="&#x2db;" horiz-adv-x="0" 
 />
    <glyph glyph-name="tilde" unicode="&#x2dc;" horiz-adv-x="320" 
d="M60 651q15 9 27.5 12t29.5 3q12 0 21.5 -1.5t22.5 -6.5q23 -8 31 -9.5t19 -1.5q12 0 20.5 3t28.5 14v-69q-19 -11 -28 -14t-21 -3q-11 0 -19 1.5t-31 9.5q-13 5 -22.5 6.5t-21.5 1.5q-17 0 -29.5 -3.5t-27.5 -11.5v69z" />
    <glyph glyph-name="hungarumlaut" unicode="&#x2dd;" horiz-adv-x="402" 
d="M245 666h97l-72 -88h-70zM105 666h97l-72 -88h-70z" />
    <glyph glyph-name="pi" unicode="&#x3c0;" horiz-adv-x="657" 
d="M117 396h-64v94h550v-94h-63v-396h-116v396h-189v-396h-118v396z" />
    <glyph glyph-name="endash" unicode="&#x2013;" horiz-adv-x="492" 
d="M489 387v-95h-486v95h486z" />
    <glyph glyph-name="emdash" unicode="&#x2014;" horiz-adv-x="569" 
d="M536 212h-502v83h502v-83z" />
    <glyph glyph-name="quoteleft" unicode="&#x2018;" horiz-adv-x="163" 
d="M33 528l58 138h39l-45 -138h45v-106h-97v106z" />
    <glyph glyph-name="quoteright" unicode="&#x2019;" horiz-adv-x="163" 
d="M130 560l-59 -138h-38l44 138h-44v106h97v-106z" />
    <glyph glyph-name="quotedblleft" unicode="&#x201c;" horiz-adv-x="290" 
d="M33 528l58 138h39l-45 -138h45v-106h-97v106zM160 528l58 138h38l-44 -138h44v-106h-96v106z" />
    <glyph glyph-name="quotedblright" unicode="&#x201d;" horiz-adv-x="290" 
d="M256 560l-58 -138h-38l44 138h-44v106h96v-106zM130 560l-59 -138h-38l44 138h-44v106h97v-106z" />
    <glyph glyph-name="quotedblbase" unicode="&#x201e;" horiz-adv-x="290" 
d="M256 0l-58 -137h-38l44 137h-44v106h96v-106zM130 0l-59 -137h-38l44 137h-44v106h97v-106z" />
    <glyph glyph-name="dagger" unicode="&#x2020;" horiz-adv-x="411" 
d="M252 502h125v-83h-125v-419h-93v418h-125v84h125v164h93v-164z" />
    <glyph glyph-name="daggerdbl" unicode="&#x2021;" horiz-adv-x="411" 
d="M252 502h125v-83h-125v-171h125v-83h-125v-165h-93v164h-125v84h125v170h-125v84h125v164h93v-164z" />
    <glyph glyph-name="bullet" unicode="&#x2022;" horiz-adv-x="478" 
d="M238 445q23 0 43 -8.5t34.5 -23.5t23 -34.5t8.5 -42.5q0 -22 -8.5 -42t-23.5 -35t-34.5 -23.5t-42.5 -8.5q-22 0 -42 8.5t-35 23.5t-23.5 35t-8.5 42q0 23 8.5 42.5t23.5 34.5t35 23.5t42 8.5z" />
    <glyph glyph-name="ellipsis" unicode="&#x2026;" horiz-adv-x="476" 
d="M443 0h-96v106h96v-106zM286 0h-96v106h96v-106zM130 0h-96v106h96v-106z" />
    <glyph glyph-name="perthousand" unicode="&#x2030;" horiz-adv-x="770" 
d="M651 296q-20 -2 -26 -12t-6 -40v-144q0 -31 7 -42.5t25 -11.5t25 11.5t7 41.5v145q0 46 -17 49zM385 100q0 -31 7 -42.5t26 -11.5q18 0 25 11.5t7 41.5v145q0 29 -7 40.5t-25 11.5q-19 0 -26 -11.5t-7 -40.5v-144zM93 423q0 -30 7 -42t25 -12t25 11.5t7 41.5v145
q0 30 -6.5 41t-25.5 11q-18 0 -25 -11.5t-7 -40.5v-144zM743 110q0 -116 -92 -116t-92 115v124q0 117 92 117t92 -117v-123zM510 109q-2 -61 -23.5 -88t-68.5 -27q-92 0 -92 115v124q0 117 92 117t92 -117v-124zM437 666l-276 -666h-55l276 666h55zM217 433q0 -117 -92 -117
t-92 117v123q0 117 92 117t92 -117v-123z" />
    <glyph glyph-name="guilsinglleft" unicode="&#x2039;" horiz-adv-x="169" 
d="M33 178v143l102 85v-119l-38 -37l38 -38v-119z" />
    <glyph glyph-name="guilsinglright" unicode="&#x203a;" horiz-adv-x="169" 
d="M135 321v-143l-102 -85v119l38 38l-38 37v119z" />
    <glyph glyph-name="fraction" unicode="&#x2044;" horiz-adv-x="157" 
d="M298 651l-364 -651h-75l366 651h73z" />
    <glyph glyph-name="trademark" unicode="&#x2122;" horiz-adv-x="892" 
d="M341 592h-122v-325h-92v325h-123v74h337v-74zM846 267h-81v324l-123 -325h-49l-121 325v-324h-83v399h134l94 -243l98 243h131v-399z" />
    <glyph glyph-name="Omega" unicode="&#x2126;" horiz-adv-x="666" 
d="M1 107h158q-42 26 -65 47t-41 52q-20 32 -29.5 72.5t-9.5 85.5q0 69 24 127.5t66.5 100.5t101 66t127.5 24t127.5 -23.5t101 -66t66.5 -100.5t24 -127q0 -126 -72 -203q-17 -17 -31 -27.5t-42 -27.5h158v-107h-284v100q40 23 63 43.5t41 50.5q19 32 29 72.5t10 85.5
q0 50 -14 91t-39 70t-60 45t-78 16t-78.5 -16t-60.5 -45t-38.5 -70t-13.5 -91q0 -128 75 -203q16 -15 29.5 -25t39.5 -24v-100h-285v107z" />
    <glyph glyph-name="partialdiff" unicode="&#x2202;" horiz-adv-x="500" 
d="M244 343q-27 0 -50 -10t-40 -28t-27 -42t-10 -51t10 -51t27 -41.5t40 -28t49 -10.5t49 10.5t40 28.5t27 42t10 51q0 28 -9.5 51.5t-26 41t-39.5 27.5t-50 10zM373 373q-3 30 -6.5 46.5t-11.5 36.5q-14 35 -36.5 63.5t-49.5 46.5q-60 41 -170 50l19 60q35 -1 51 -3t36 -6
q39 -8 77 -25t65 -38q62 -49 94.5 -127t32.5 -180q0 -146 -61 -226.5t-172 -80.5q-48 0 -90 17t-72.5 47t-48 71t-17.5 89q0 45 17.5 85.5t47.5 70.5t70 47.5t85 17.5q42 0 73.5 -14t66.5 -48z" />
    <glyph glyph-name="Delta" unicode="&#x2206;" horiz-adv-x="666" 
d="M514 88l-183 474l-182 -474h365zM6 0l260 666h128l266 -666h-654z" />
    <glyph glyph-name="product" unicode="&#x220f;" horiz-adv-x="666" 
d="M676 750v-76h-100v-847h100v-77h-299v76h98v847h-284v-846h97v-77h-298v76h102v847h-101v77h685z" />
    <glyph glyph-name="radical" unicode="&#x221a;" horiz-adv-x="666" 
d="M645 722h-139l-301 -737l-109 305h-74v77h137l50 -173l229 604h207v-76z" />
    <glyph glyph-name="infinity" unicode="&#x221e;" horiz-adv-x="666" 
d="M273 339q-2 5 -3.5 5.5t-3.5 2.5q-33 34 -58 47.5t-54 13.5q-30 0 -49.5 -19t-19.5 -50q0 -32 19 -51.5t48 -19.5q56 0 121 71zM393 340q63 -72 118 -72q32 0 50.5 18t18.5 50t-19 52t-50 20q-30 0 -58 -16t-60 -52zM333 408q43 49 84.5 71t91.5 22q36 0 65.5 -12
t51 -33.5t33.5 -51t12 -64.5q0 -36 -11.5 -66.5t-32.5 -52t-50 -33.5t-64 -12q-48 0 -90 22t-89 73q-82 -95 -179 -95q-35 0 -64.5 12t-50.5 33.5t-33 51t-12 65.5q0 35 12 65t33.5 52t51.5 34t65 12q47 0 89 -22.5t87 -70.5z" />
    <glyph glyph-name="integral" unicode="&#x222b;" horiz-adv-x="500" 
d="M368 588q-1 5 -0.5 9t0.5 7q0 58 -7.5 77.5t-27.5 19.5q-18 0 -25.5 -14.5t-7.5 -47.5v-33v-47v-590v-53q0 -166 -122 -166q-35 0 -60.5 13.5t-39.5 38.5q-13 23 -18 50t-7 75h82v-12q0 -34 2 -56t6.5 -35t12.5 -18t20 -5q17 0 24 12.5t8 44.5v27v46v574q0 41 0.5 67.5
t2 45t4.5 31t7 25.5q13 36 40.5 56t65.5 20q36 0 63 -16t38 -44q8 -19 11.5 -39.5t6.5 -62.5h-79z" />
    <glyph glyph-name="approxequal" unicode="&#x2248;" horiz-adv-x="500" 
d="M493 281q-37 -63 -67.5 -88.5t-68.5 -25.5q-30 0 -66 15l-45 19l-43 18q-22 10 -33 13t-22 3q-26 0 -45.5 -18t-45.5 -68l-51 59q37 66 68 93t71 27q22 0 47.5 -8t73.5 -29q24 -11 38.5 -17t23.5 -9t15 -4t12 -1q23 0 42 17t45 62zM493 478q-37 -64 -67.5 -89t-68.5 -25
q-30 0 -66 15l-45 19l-43 18q-23 10 -33.5 13t-21.5 3q-26 0 -45.5 -18t-45.5 -68l-51 59q38 66 68.5 93t70.5 27q22 0 47.5 -8t73.5 -29l38.5 -17.5t23.5 -9.5t15 -4t12 -1q23 0 42 17.5t45 62.5z" />
    <glyph glyph-name="notequal" unicode="&#x2260;" horiz-adv-x="500" 
d="M331 594l81 -40l-41 -84h122v-92h-167l-50 -98h217v-92h-263l-65 -130l-81 40l45 90h-123v92h169l49 98h-218v92h264z" />
    <glyph glyph-name="lessequal" unicode="&#x2264;" horiz-adv-x="499" 
d="M492 4h-485v113h485v-113zM492 542l-362 -159l362 -139v-103l-485 189v105l485 210v-103z" />
    <glyph glyph-name="greaterequal" unicode="&#x2265;" horiz-adv-x="499" 
d="M492 4h-485v113h485v-113zM7 244l362 158l-362 139v104l485 -189v-105l-485 -211v104z" />
    <glyph glyph-name="lozenge" unicode="&#x25ca;" horiz-adv-x="666" 
d="M332 548l-143 -214l143 -213l147 213zM332 683l254 -349l-254 -350l-252 350z" />
    <glyph glyph-name="fi" unicode="&#xfb01;" horiz-adv-x="0" 
 />
    <glyph glyph-name="fl" unicode="&#xfb02;" horiz-adv-x="0" 
 />
    <glyph glyph-name="apple" horiz-adv-x="782" 
d="M677 456q-44 -33 -62.5 -65t-18.5 -74q0 -51 26.5 -90t73.5 -59q-38 -93 -82.5 -143.5t-86.5 -50.5q-20 0 -41 9l-41 17q-10 2 -32 2q-16 0 -31.5 -1t-20.5 -3l-43 -17q-19 -9 -38 -9q-57 0 -110 81q-40 59 -62 125.5t-22 127.5q0 49 13.5 89t38.5 69t59 45t76 16
q18 0 35 -3.5t42 -13.5q34 -13 47 -13q8 0 19 2.5t25 7.5l33.5 12.5t21.5 6.5t17 2.5t19 0.5q93 0 145 -71zM534 681q0 -33 -12 -62.5t-32.5 -52t-47.5 -35.5t-57 -13q2 72 41 118t108 55v-10z" />
    <glyph glyph-name="quotesinglebase" horiz-adv-x="163" 
d="M130 0l-59 -137h-38l44 137h-44v106h97v-106z" />
    <glyph glyph-name="register" horiz-adv-x="510" 
d="M223 580h34q21 -1 30 4.5t9 19.5q0 24 -37 24h-36v-48zM269 666q76 0 76 -58q0 -12 -3.5 -20t-12.5 -19l-10 -8l10 -8q6 -5 9.5 -18.5t5.5 -38.5q1 -5 1 -7v-4q1 -2 1 -4.5t2 -6.5q0 -3 0.5 -4l1.5 -3h-48q-4 6 -4.5 11t-2.5 17q-2 31 -9 39.5t-31 8.5h-32v-76h-50v199
h96zM255 723q-33 0 -62.5 -12.5t-51.5 -34t-34.5 -51t-12.5 -62.5t12.5 -62t34.5 -51t51.5 -34.5t62.5 -12.5t62.5 12.5t51.5 34.5t34.5 51t12.5 62t-12.5 62.5t-34.5 51t-51.5 34t-62.5 12.5zM255 769q43 0 81 -16t66 -44t44.5 -65.5t16.5 -80.5t-16.5 -80.5t-44.5 -65.5
t-66 -44t-81 -16t-81 16t-66 44t-44.5 65.5t-16.5 80.5t16.5 80.5t44.5 65.5t66 44t81 16z" />
    <glyph glyph-name="sumnation" horiz-adv-x="666" 
d="M616 512h-82l-13 161h-376l252 -402l-254 -444h391l7 164h84v-241h-603v80l259 443l-259 397v80h594v-238z" />
  </font>
</defs>
</svg>
